<?xml version="1.0" standalone="no"?>
<!DOCTYPE svg PUBLIC "-//W3C//DTD SVG 20010904//EN"
 "http://www.w3.org/TR/2001/REC-SVG-20010904/DTD/svg10.dtd">
<svg version="1.0" xmlns="http://www.w3.org/2000/svg"
 width="460.000000pt" height="460.000000pt" viewBox="0 0 460.000000 460.000000"
 preserveAspectRatio="xMidYMid meet">
<metadata>
Created by potrace 1.14, written by Peter Selinger 2001-2017
</metadata>
<g transform="translate(0.000000,460.000000) scale(0.100000,-0.100000)"
fill="#000000" stroke="none">
<path d="M1595 3941 c-3 -5 -2 -12 3 -15 5 -3 9 1 9 9 0 17 -3 19 -12 6z"/>
<path d="M1548 3921 c-6 -10 -19 -17 -27 -14 -12 3 -11 1 2 -7 9 -6 14 -17 11
-23 -5 -8 -3 -8 7 1 7 6 18 12 24 12 5 0 1 -7 -9 -15 -10 -8 -22 -12 -26 -10
-4 3 -13 -1 -19 -9 -7 -8 -21 -12 -33 -8 -13 3 -19 1 -15 -5 8 -12 -20 -26
-34 -17 -6 3 -8 -6 -5 -20 3 -15 1 -24 -5 -21 -5 4 -7 10 -4 15 3 5 1 11 -4
15 -6 3 -7 13 -4 23 4 9 -5 4 -20 -12 -32 -34 -31 -33 -12 -33 8 0 12 4 9 8
-2 4 1 11 7 14 7 5 10 0 7 -11 -2 -11 -8 -18 -13 -17 -6 1 -15 -3 -22 -8 -7
-7 -14 -6 -19 2 -4 7 -3 9 4 6 6 -5 8 0 5 13 -8 29 -20 33 -19 7 1 -12 -4 -21
-11 -20 -16 3 -23 -21 -11 -38 8 -11 9 -11 5 3 -3 9 0 19 8 21 8 4 12 -2 11
-17 -1 -25 -31 -33 -40 -10 -3 7 -12 11 -20 8 -11 -4 -14 -33 -13 -147 0 -78
2 -136 5 -129 2 7 9 9 15 5 8 -4 7 -1 -1 9 -10 13 -10 17 3 21 8 4 14 3 13 -1
-5 -18 23 -50 41 -45 10 3 22 0 25 -6 4 -6 1 -9 -7 -5 -8 3 -19 -1 -25 -9 -9
-11 -8 -14 3 -14 8 0 12 4 9 9 -3 4 2 5 11 1 12 -4 13 -8 5 -13 -9 -6 -7 -11
6 -20 16 -10 16 -11 2 -6 -12 3 -18 0 -18 -10 0 -8 4 -13 8 -10 4 2 8 -6 8
-19 0 -17 -5 -22 -19 -19 -13 2 -17 -1 -14 -10 9 -22 -5 -28 -23 -11 -14 13
-17 13 -17 1 0 -8 3 -15 6 -14 19 2 24 -4 11 -12 -13 -8 -12 -10 3 -10 19 0
23 -15 7 -25 -6 -4 -8 -10 -5 -15 6 -9 24 -8 42 3 9 6 11 3 7 -8 -4 -9 -13
-14 -20 -11 -9 3 -14 -2 -14 -14 0 -11 1 -22 3 -23 4 -7 -25 -37 -32 -33 -3 2
-15 0 -26 -5 -18 -7 -17 -8 5 -6 14 1 31 6 38 10 16 11 15 -3 -3 -27 -8 -11
-15 -25 -15 -30 1 -6 6 -1 13 11 11 20 14 20 37 7 24 -14 24 -15 3 -11 -19 4
-23 1 -23 -18 0 -13 -8 -29 -17 -35 -17 -10 -17 -10 1 -8 10 2 21 -3 23 -10 3
-8 -2 -10 -14 -6 -17 5 -17 5 0 -6 19 -13 41 -4 31 12 -4 7 -2 8 4 4 7 -4 12
-2 12 5 0 7 3 9 6 6 4 -4 2 -13 -4 -20 -7 -8 -8 -18 -4 -22 4 -5 1 -5 -5 -1
-19 10 -16 -4 5 -27 9 -11 11 -17 4 -13 -7 4 -15 1 -18 -8 -3 -9 -11 -16 -17
-16 -5 0 -2 8 7 19 16 18 16 19 -9 19 -14 0 -25 -5 -25 -10 0 -5 4 -7 9 -4 5
3 9 -6 9 -19 0 -14 -4 -25 -9 -25 -5 0 -1 -8 9 -18 9 -11 20 -17 23 -16 4 2
13 -4 20 -14 12 -15 12 -16 -2 -5 -9 7 -19 10 -22 6 -9 -9 -9 -23 1 -22 19 3
23 -2 13 -15 -6 -8 -11 -18 -10 -22 3 -20 -1 -44 -9 -44 -4 0 -7 16 -8 34 0
20 4 32 9 29 6 -4 7 -1 2 6 -5 9 -10 10 -18 2 -7 -7 -15 -5 -25 7 -7 9 -4 0 7
-21 20 -36 20 -64 1 -52 -5 3 -12 0 -16 -6 -5 -8 -3 -9 6 -4 9 5 11 1 6 -16
-3 -13 -3 -18 0 -11 3 6 10 10 15 7 5 -4 6 2 3 12 -5 15 -3 15 10 -2 8 -11 20
-26 26 -32 12 -15 -1 -18 -16 -4 -5 6 -19 4 -34 -5 l-25 -15 25 6 c23 6 24 5
7 -8 -16 -13 -16 -15 -2 -21 15 -5 15 -8 1 -28 -9 -12 -16 -27 -16 -33 1 -5 6
0 13 12 11 20 14 20 37 7 24 -14 24 -15 3 -11 -19 4 -23 1 -23 -18 0 -13 -8
-29 -17 -35 -17 -10 -17 -10 1 -8 10 2 21 -3 23 -10 3 -8 -2 -10 -14 -6 -17 5
-17 5 0 -6 19 -13 41 -4 31 12 -4 7 -2 8 4 4 7 -4 12 -2 12 5 0 7 3 9 6 6 4
-4 2 -13 -4 -20 -7 -8 -8 -18 -4 -22 4 -5 1 -5 -5 -1 -19 10 -16 -4 5 -27 9
-11 11 -17 4 -13 -7 4 -15 1 -18 -8 -3 -9 -11 -16 -17 -16 -5 0 -2 8 7 19 16
18 16 19 -9 19 -14 0 -25 -5 -25 -10 0 -5 4 -7 9 -4 5 3 9 -6 9 -19 0 -14 -4
-25 -9 -25 -5 0 -1 -8 9 -18 9 -11 20 -17 23 -16 4 2 13 -4 20 -14 12 -15 12
-16 -2 -5 -9 7 -19 10 -22 6 -9 -9 -9 -23 1 -22 19 3 23 -2 13 -15 -6 -8 -11
-18 -10 -22 3 -20 -1 -44 -9 -44 -4 0 -7 16 -8 34 0 20 4 32 9 29 6 -4 7 -1 2
6 -5 9 -10 10 -18 2 -7 -7 -15 -5 -25 7 -7 9 -4 0 7 -21 20 -36 20 -64 1 -52
-5 3 -12 0 -16 -6 -5 -8 -3 -9 6 -4 9 5 11 1 6 -16 -3 -13 -3 -18 0 -11 3 6
10 10 15 7 5 -4 6 2 3 12 -5 15 -3 15 10 -2 8 -11 20 -26 26 -32 12 -15 -1
-18 -15 -4 -6 6 -20 4 -35 -5 l-25 -15 25 6 c23 6 24 5 7 -8 -16 -13 -16 -15
-2 -21 15 -5 15 -8 1 -28 -9 -12 -16 -27 -16 -33 1 -5 6 0 13 12 11 20 14 20
37 7 24 -14 24 -15 3 -11 -19 4 -23 1 -23 -18 0 -13 -8 -29 -17 -35 -17 -10
-17 -10 1 -8 10 2 21 -3 23 -10 3 -8 -2 -10 -14 -6 -17 5 -17 5 0 -6 19 -13
41 -4 31 12 -4 7 -2 8 4 4 7 -4 12 -2 12 5 0 7 3 9 6 6 4 -4 2 -13 -4 -20 -7
-8 -8 -18 -4 -22 4 -5 1 -5 -5 -1 -8 4 -13 1 -13 -8 0 -9 -5 -16 -11 -16 -5 0
-7 5 -4 10 3 6 1 10 -5 10 -7 0 -9 -8 -5 -20 5 -14 2 -20 -10 -20 -10 0 -13 5
-9 12 5 7 3 8 -5 3 -9 -5 -10 -10 -2 -18 8 -8 19 -6 41 6 17 10 30 13 30 8 0
-6 -7 -11 -15 -11 -8 0 -15 -4 -15 -10 0 -5 6 -10 14 -10 8 0 18 -4 21 -10 3
-5 0 -7 -8 -4 -8 3 -20 -2 -27 -11 -10 -12 -15 -13 -20 -4 -9 13 -30 3 -30
-14 0 -7 4 -6 10 3 9 14 14 7 11 -13 -1 -4 11 0 26 10 28 17 28 17 10 -3 -11
-14 -15 -28 -10 -40 6 -17 5 -17 -10 -5 -11 9 -17 10 -17 2 0 -6 4 -11 8 -11
4 0 8 -9 9 -20 1 -12 -4 -20 -13 -20 -9 0 -12 5 -8 12 5 7 3 8 -5 3 -9 -5 -10
-10 -2 -18 8 -8 19 -6 41 6 17 10 30 13 30 8 0 -6 -7 -11 -15 -11 -8 0 -15 -4
-15 -10 0 -5 6 -10 14 -10 8 0 18 -4 21 -10 3 -5 0 -7 -8 -4 -8 3 -20 -2 -27
-11 -10 -12 -15 -13 -20 -4 -9 13 -30 3 -30 -14 0 -7 4 -6 10 3 9 14 14 7 11
-13 -1 -4 11 0 26 10 28 17 28 17 10 -3 -11 -14 -15 -28 -10 -40 6 -17 5 -17
-10 -5 -11 9 -17 10 -17 2 0 -6 4 -11 8 -11 4 0 8 -9 9 -20 1 -12 -4 -20 -13
-20 -9 0 -12 5 -8 12 5 7 3 8 -5 3 -9 -5 -10 -10 -2 -18 8 -8 19 -6 41 6 17
10 30 13 30 8 0 -6 -7 -11 -15 -11 -8 0 -15 -4 -15 -10 0 -5 6 -10 14 -10 8 0
18 -4 21 -10 3 -5 0 -7 -8 -4 -8 3 -20 -2 -27 -11 -10 -12 -15 -13 -20 -4 -9
13 -30 3 -30 -14 0 -7 4 -6 10 3 9 14 14 7 11 -13 -1 -4 11 0 26 10 28 17 28
17 10 -3 -11 -14 -15 -28 -10 -40 6 -17 5 -17 -10 -5 -11 9 -17 10 -17 2 0 -6
4 -11 8 -11 4 0 8 -9 9 -20 1 -12 -4 -20 -13 -20 -9 0 -12 5 -8 12 5 7 3 8 -5
3 -9 -5 -10 -10 -2 -18 8 -8 19 -6 41 6 17 10 30 13 30 8 0 -6 -7 -11 -15 -11
-8 0 -15 -4 -15 -10 0 -5 6 -10 14 -10 8 0 18 -4 21 -10 3 -5 0 -7 -8 -4 -8 3
-20 -2 -27 -11 -10 -12 -15 -13 -20 -4 -9 13 -30 3 -30 -14 0 -7 4 -6 10 3 9
14 14 7 11 -13 -1 -4 11 0 26 10 28 17 28 17 10 -3 -11 -14 -15 -28 -10 -40 6
-17 5 -17 -10 -5 -11 9 -17 10 -17 2 0 -6 4 -11 8 -11 4 0 8 -9 9 -20 1 -12
-4 -20 -13 -20 -9 0 -12 5 -8 12 5 7 3 8 -5 3 -9 -5 -10 -10 -2 -18 8 -8 19
-6 41 6 17 10 30 13 30 8 0 -6 -7 -11 -15 -11 -8 0 -15 -4 -15 -10 0 -5 6 -10
14 -10 8 0 18 -4 21 -10 3 -5 0 -7 -8 -4 -8 3 -20 -2 -27 -11 -10 -12 -15 -13
-20 -4 -9 13 -30 3 -30 -14 0 -7 4 -6 10 3 9 14 14 7 11 -13 -1 -4 11 0 26 10
28 17 28 17 10 -3 -11 -14 -15 -28 -10 -40 6 -17 5 -17 -10 -5 -11 9 -17 10
-17 2 0 -6 4 -11 8 -11 4 0 8 -9 9 -20 1 -12 -4 -20 -13 -20 -9 0 -12 5 -8 12
5 7 3 8 -5 3 -9 -5 -10 -10 -2 -18 8 -8 19 -6 41 6 17 10 30 13 30 8 0 -6 -7
-11 -15 -11 -8 0 -15 -4 -15 -10 0 -5 6 -10 14 -10 8 0 18 -4 21 -10 3 -5 0
-7 -8 -4 -8 3 -20 -2 -27 -11 -10 -12 -15 -13 -20 -4 -9 13 -30 3 -30 -14 0
-7 4 -6 10 3 9 14 14 7 11 -13 -1 -4 11 0 26 10 28 17 28 17 10 -3 -20 -25
-13 -55 11 -47 14 4 15 3 2 -6 -11 -7 -19 -6 -32 6 -11 10 -18 12 -18 5 0 -7
5 -12 10 -12 6 0 10 -10 10 -22 0 -19 -2 -20 -10 -8 -6 9 -10 10 -10 3 0 -6 5
-15 11 -19 8 -5 8 -9 -1 -14 -9 -6 -6 -10 9 -15 11 -3 26 -16 32 -28 9 -20 9
-20 -4 -4 -19 23 -30 22 -17 -2 5 -11 7 -27 4 -35 -4 -11 -1 -15 7 -13 8 2 11
2 6 0 -4 -3 -5 -8 -2 -13 3 -4 -2 -13 -10 -20 -8 -7 -15 -17 -15 -22 0 -6 6
-6 14 1 11 9 16 9 22 0 4 -8 3 -9 -4 -5 -6 4 -17 -5 -25 -20 -13 -24 -15 -25
-30 -9 -9 9 -17 12 -17 6 0 -6 10 -16 22 -22 19 -10 20 -13 6 -23 -15 -11 -15
-13 2 -24 11 -6 27 -9 37 -5 10 4 0 -11 -22 -33 -22 -21 -36 -36 -30 -32 13
11 27 10 21 -1 -3 -5 1 -14 9 -21 8 -7 15 -11 16 -9 6 31 6 38 -1 34 -10 -6
-7 22 3 30 4 3 5 2 2 -1 -2 -4 2 -13 10 -20 8 -8 12 -20 9 -28 -5 -14 19 -39
42 -42 8 -1 14 3 14 9 0 5 3 8 6 4 3 -3 1 -14 -5 -24 -7 -12 -10 -14 -11 -4 0
8 -3 11 -7 8 -3 -4 -16 2 -27 12 -16 15 -25 17 -36 10 -13 -9 -12 -10 2 -5 11
3 23 -2 31 -14 7 -11 24 -21 36 -23 13 -2 27 -10 32 -18 6 -9 8 -4 4 19 -3 17
-2 32 2 33 5 0 16 2 25 4 9 2 19 -3 22 -11 3 -8 11 -14 18 -14 9 0 9 3 0 12
-7 7 -12 16 -12 22 0 5 6 1 14 -10 20 -27 3 -39 -27 -19 -15 9 -28 12 -31 7
-3 -6 6 -13 20 -16 l27 -7 -24 -26 c-20 -23 -18 -22 16 5 37 30 40 31 63 16
14 -9 21 -11 18 -5 -5 8 4 10 28 6 30 -3 36 -1 36 14 0 24 26 34 52 20 18 -10
20 -9 15 5 -4 10 -3 15 3 11 15 -9 5 -51 -11 -46 -8 2 -20 4 -26 4 -10 0 -10
3 0 15 10 13 9 14 -3 10 -18 -6 -20 -32 -2 -34 6 -1 13 -3 15 -4 7 -7 46 -6
41 1 -7 12 3 11 26 -1 14 -8 18 -6 16 7 -2 9 -9 19 -17 21 -11 3 -11 1 1 -8
12 -9 12 -11 1 -8 -8 2 -15 12 -17 21 -2 14 1 15 17 6 15 -8 26 -5 49 11 17
12 30 18 30 14 0 -3 8 0 18 7 15 13 16 12 3 -3 -11 -16 -11 -18 2 -18 8 0 18
7 21 16 3 8 10 12 16 9 5 -3 10 -1 10 5 0 6 4 9 9 5 6 -3 14 3 20 12 6 10 11
12 11 6 0 -7 7 -13 16 -13 8 0 13 4 10 9 -4 5 2 8 11 6 10 -1 25 3 33 9 13 9
13 9 2 -5 -10 -14 -10 -18 2 -22 7 -3 19 0 25 6 12 12 61 18 61 7 0 -4 -11
-12 -25 -18 -21 -10 -23 -9 -18 6 6 15 4 15 -15 -2 -26 -23 -28 -28 -5 -19 10
4 14 2 10 -4 -3 -5 0 -10 8 -10 8 0 11 5 8 10 -3 5 0 7 8 5 8 -3 22 1 32 10
19 17 24 3 5 -16 -9 -9 -9 -12 0 -12 7 0 12 5 12 11 0 5 5 7 10 4 7 -4 9 2 7
17 -2 12 -2 17 0 10 3 -7 8 -10 13 -7 5 3 12 0 16 -6 4 -7 3 -9 -3 -6 -5 3
-10 0 -10 -8 0 -8 4 -12 9 -9 4 3 8 -1 8 -8 0 -10 3 -9 9 1 6 9 6 22 -1 34 -5
10 -7 21 -4 25 3 3 6 -1 6 -9 0 -12 2 -11 11 1 9 13 10 12 5 -2 -3 -10 -1 -20
4 -23 5 -3 7 -12 4 -19 -3 -8 -1 -17 5 -21 7 -3 8 0 5 9 -4 11 0 14 14 11 20
-4 25 16 7 32 -4 4 -5 3 -2 -3 3 -6 0 -11 -8 -11 -8 0 -15 4 -15 9 0 4 5 8 11
8 5 0 7 6 3 13 -6 9 -4 9 8 -1 9 -7 18 -9 20 -5 3 4 3 2 1 -5 -1 -8 3 -12 9
-9 7 2 12 10 10 17 -3 11 0 11 12 1 16 -13 12 -36 -4 -26 -10 6 -25 -14 -16
-22 3 -3 11 -2 18 4 15 11 60 15 54 4 -3 -4 6 -7 19 -7 19 0 22 3 13 13 -13
17 -21 17 -12 1 4 -7 3 -9 -1 -5 -14 13 -14 34 1 34 7 0 10 -5 7 -10 -4 -6 1
-8 11 -4 10 4 15 3 11 -3 -3 -6 1 -10 9 -10 9 0 13 -6 10 -14 -3 -8 -1 -17 5
-21 7 -4 8 0 4 11 -5 13 -3 15 7 9 8 -5 11 -4 6 3 -4 7 2 11 16 10 57 -2 65 1
63 27 -2 14 1 23 5 20 5 -3 7 -11 4 -18 -6 -18 74 -16 85 2 6 9 11 10 15 2 4
-6 2 -11 -4 -11 -6 0 -8 -5 -5 -10 4 -6 12 -7 18 -3 7 4 23 8 37 9 14 1 17 0
8 -2 -9 -3 -15 -11 -12 -19 3 -7 0 -16 -7 -21 -9 -5 -10 -2 -6 9 3 9 1 19 -5
23 -7 5 -8 2 -3 -6 6 -9 4 -11 -5 -5 -9 6 -11 4 -5 -6 8 -12 6 -12 -8 0 -10 8
-17 9 -17 3 0 -6 10 -14 23 -18 33 -11 46 -13 46 -6 -3 22 4 30 26 30 14 0 25
-4 25 -9 0 -4 -9 -6 -20 -4 -13 2 -20 -2 -20 -11 0 -10 5 -12 13 -7 6 4 21 9
32 10 15 2 13 -1 -7 -13 -37 -20 -35 -23 6 -10 19 6 32 15 29 22 -2 7 1 15 8
20 8 4 10 3 5 -4 -9 -14 15 -52 32 -52 8 0 10 -5 6 -12 -6 -9 -3 -9 9 0 9 8
22 10 29 6 18 -11 48 -12 54 -2 3 5 11 4 18 -1 10 -8 18 -5 32 11 13 16 14 19
2 10 -13 -10 -17 -10 -21 0 -4 10 -6 9 -6 -1 -1 -11 -5 -10 -16 5 -8 10 -14
24 -15 29 0 6 4 4 9 -4 5 -8 19 -16 31 -18 12 -2 19 1 15 7 -3 5 -1 10 4 10 6
0 12 -4 12 -10 1 -5 2 -16 3 -22 1 -7 -5 -19 -14 -26 -13 -11 -12 -12 5 -5 11
5 32 8 47 7 15 0 25 3 22 7 -3 5 2 9 11 9 10 0 13 -5 9 -12 -6 -10 -5 -10 8
-1 15 13 28 8 28 -9 0 -5 -4 -7 -8 -4 -5 3 -9 -2 -9 -11 0 -13 4 -12 17 5 10
12 21 18 25 14 5 -4 5 -1 1 6 -5 8 0 12 14 12 17 0 20 4 15 23 -4 15 -3 18 3
8 8 -11 10 -11 14 0 3 9 6 8 11 -5 5 -12 3 -15 -6 -10 -6 4 -8 3 -4 -1 4 -5
-3 -15 -15 -22 -13 -7 -18 -12 -12 -13 5 0 19 6 30 14 17 13 22 12 44 -7 l25
-22 -19 23 c-11 12 -15 22 -11 22 5 0 1 6 -10 13 -18 14 -13 38 8 36 9 0 9 -2
0 -6 -7 -2 -13 -9 -13 -14 0 -6 5 -7 10 -4 6 3 10 1 10 -5 0 -6 5 -8 10 -5 6
4 7 11 4 17 -4 6 -2 8 4 4 6 -3 13 -2 17 4 3 5 0 10 -7 10 -8 0 -6 5 5 11 9 6
15 14 12 20 -4 5 -1 9 4 9 15 0 14 -13 -1 -29 -11 -11 -8 -12 12 -6 21 5 20 3
-8 -14 -19 -13 -30 -26 -26 -33 4 -7 3 -8 -4 -4 -7 4 -12 2 -12 -3 0 -6 7 -11
15 -11 9 0 15 7 13 16 -2 10 3 19 11 22 9 3 11 0 6 -8 -6 -9 -3 -9 13 -1 20
11 23 36 7 61 -3 6 -1 10 4 10 6 0 11 -6 12 -12 0 -7 4 -3 10 10 6 15 13 21
21 15 19 -11 39 -13 32 -2 -3 5 -9 7 -14 4 -5 -3 -11 -1 -14 4 -4 5 -2 12 4
16 6 4 7 12 3 18 -11 18 -12 37 -2 37 5 0 9 9 9 21 0 11 5 17 10 14 6 -3 10
-1 10 5 0 7 -8 9 -21 5 -18 -6 -19 -5 -8 14 10 15 16 17 26 9 18 -15 16 -3 -3
16 -8 9 -16 25 -17 36 -1 11 -6 20 -12 20 -5 1 1 7 15 15 22 13 16 21 -13 16
-5 -1 -6 3 -2 9 4 7 12 7 25 0 25 -14 30 -13 30 6 0 14 3 14 15 4 13 -11 14
-10 9 4 -7 19 -15 20 -33 4 -11 -11 -12 -10 -6 1 6 11 4 13 -9 8 -11 -4 -15
-3 -11 4 4 6 13 8 21 5 8 -3 17 1 20 9 3 8 13 11 22 8 13 -4 12 -2 -3 11 -16
13 -17 15 -2 10 9 -3 17 -2 17 3 0 5 -9 9 -20 10 -14 1 -20 -4 -18 -14 2 -9
-4 -18 -12 -20 -13 -4 -13 -3 0 6 11 8 12 11 2 11 -7 0 -10 4 -7 10 3 5 0 10
-7 10 -10 0 -10 2 0 9 11 7 11 11 -3 22 -9 8 -24 22 -33 31 -12 14 -18 15 -25
5 -6 -8 -7 -7 -4 4 4 12 -2 16 -24 16 -15 0 -26 -4 -24 -8 3 -3 -3 -13 -12
-20 -10 -9 -14 -9 -10 -2 5 8 -4 18 -23 28 -16 8 -30 23 -31 33 0 14 -2 14 -9
-3 -4 -11 -23 -28 -41 -38 -19 -10 -26 -12 -16 -4 16 13 16 15 2 21 -10 4 -14
2 -9 -5 4 -7 1 -10 -7 -7 -8 3 -13 14 -11 24 2 12 -5 7 -17 -13 -12 -18 -26
-33 -32 -33 -8 0 -7 5 2 18 7 9 2 7 -11 -5 -21 -19 -22 -24 -9 -39 8 -10 9
-15 2 -11 -6 4 -14 3 -18 -3 -4 -6 -13 -7 -23 -1 -10 5 -24 6 -33 1 -17 -10
-48 5 -36 17 5 4 12 1 17 -7 6 -10 10 -11 10 -3 0 7 -10 17 -21 24 -15 8 -19
8 -15 0 4 -6 3 -11 -1 -11 -5 0 -9 -9 -10 -20 -1 -11 2 -18 7 -15 11 7 7 -22
-5 -32 -4 -4 -5 -3 -1 4 4 8 -5 18 -24 28 -16 8 -30 21 -30 28 0 8 -4 7 -10
-3 -5 -8 -12 -11 -16 -7 -4 4 -13 2 -21 -4 -7 -6 -13 -8 -13 -4 0 4 -7 2 -15
-5 -8 -6 -20 -8 -27 -4 -9 6 -9 3 1 -10 10 -12 16 -14 21 -5 6 8 9 8 14 0 4
-6 2 -11 -3 -11 -6 0 -11 -5 -11 -10 0 -7 7 -7 21 1 15 8 18 13 10 18 -9 6 -8
11 2 20 12 9 15 7 15 -12 0 -15 -11 -29 -30 -40 -16 -9 -27 -13 -24 -9 7 11
-8 33 -25 36 -30 6 -49 19 -42 29 3 6 1 7 -6 3 -9 -6 -9 -11 -1 -21 9 -11 7
-14 -10 -12 -16 1 -20 6 -16 22 5 18 4 19 -8 3 -7 -10 -17 -14 -21 -10 -5 4
-4 1 0 -7 6 -11 4 -13 -9 -8 -11 5 -15 3 -10 -4 4 -7 1 -10 -7 -7 -8 3 -13 13
-11 22 2 13 -2 11 -21 -6 -13 -13 -21 -27 -19 -32 3 -5 11 -1 18 9 12 16 13
16 11 -2 0 -13 -8 -19 -23 -19 -13 0 -20 4 -18 8 3 4 -2 8 -11 8 -10 0 -13 -5
-9 -12 4 -7 3 -8 -5 -4 -6 4 -8 12 -5 18 4 6 1 9 -7 6 -8 -3 -14 -10 -14 -16
0 -5 -3 -13 -7 -17 -9 -9 -5 16 5 33 5 6 4 12 -1 12 -12 0 -33 -25 -27 -32 3
-2 -2 -5 -10 -5 -8 0 -12 3 -10 7 2 4 -11 7 -30 7 -27 0 -32 -3 -24 -13 7 -9
6 -14 -3 -20 -7 -4 -10 -3 -5 1 4 5 -2 18 -13 30 l-20 21 28 -1 c15 -1 33 -5
40 -9 17 -10 15 2 -3 20 -8 9 -15 11 -15 5 0 -6 -5 -11 -11 -11 -5 0 -7 5 -3
12 5 7 3 8 -6 3 -10 -6 -12 -4 -7 8 11 30 -1 18 -26 -24 -19 -31 -26 -37 -31
-24 -3 9 -2 14 4 10 6 -4 9 -3 8 2 -1 4 3 19 10 33 12 22 11 23 -1 8 -8 -10
-18 -14 -22 -10 -5 4 -4 1 0 -7 6 -11 4 -13 -7 -8 -16 6 -19 -8 -6 -29 4 -6 1
-11 -7 -11 -8 0 -13 3 -12 6 3 13 -15 51 -24 51 -6 0 -7 -4 -4 -10 3 -5 1 -10
-4 -10 -6 0 -11 6 -11 13 0 8 -4 7 -10 -3 -9 -13 -10 -13 -11 0 -1 8 -1 18 0
23 0 4 -3 7 -9 7 -14 0 -13 -5 10 -53 20 -41 13 -36 -26 18 -11 15 -16 17 -26
7 -17 -17 -28 -15 -29 6 0 10 -3 12 -6 4 -2 -6 -10 -9 -15 -6 -6 4 -8 2 -5 -3
4 -6 -7 -16 -23 -23 -16 -7 -27 -16 -24 -21 3 -5 12 -3 20 5 8 9 27 13 44 11
17 -2 30 0 30 4 0 4 7 8 15 8 15 0 30 -26 20 -35 -3 -3 -5 0 -5 6 0 7 -7 12
-15 12 -8 0 -15 -6 -15 -12 0 -9 -4 -8 -10 2 -8 13 -10 12 -10 -4 0 -18 -1
-19 -13 -3 -11 16 -14 16 -32 3 -17 -14 -18 -17 -5 -27 13 -9 12 -10 -3 -5
-10 3 -21 6 -23 6 -3 0 -3 4 0 9 3 5 -3 11 -15 14 -20 5 -20 5 -3 -21 17 -26
17 -27 -1 -12 -17 14 -18 13 -12 -2 3 -10 1 -20 -5 -24 -7 -4 -8 -3 -4 4 4 7
2 12 -5 12 -9 0 -9 3 0 14 15 18 -5 34 -22 17 -9 -9 -7 -11 8 -6 16 5 17 5 5
-3 -8 -6 -18 -8 -22 -6 -4 3 -8 0 -8 -6 0 -8 -7 -9 -17 -5 -10 4 -26 7 -35 7
-10 0 -20 3 -23 9 -4 5 2 6 12 2 16 -6 16 -5 5 10 -8 9 -11 20 -8 26 4 5 -6 8
-21 6 -28 -3 -68 29 -57 46 3 5 0 9 -5 9 -6 0 -11 5 -11 11 0 6 -10 20 -22 31
-13 11 -18 17 -11 14 6 -4 13 -3 16 1 2 5 2 2 0 -6 -2 -8 2 -11 12 -7 10 4 14
2 9 -5 -5 -8 -1 -8 13 0 11 6 24 7 29 3 5 -4 -1 4 -12 18 -22 25 -22 56 -1 43
7 -3 9 -3 5 2 -4 4 -2 15 5 23 8 11 8 14 0 9 -6 -4 -15 -2 -19 4 -3 6 -1 15 6
19 8 5 7 9 -4 13 -9 4 -16 11 -16 17 0 6 4 8 10 5 6 -4 7 1 3 12 -6 16 -5 16
11 4 13 -11 19 -12 29 -2 9 10 8 11 -4 6 -10 -4 -20 -1 -24 4 -3 6 -11 9 -16
6 -5 -4 -9 -1 -9 5 0 6 10 15 23 20 13 5 16 9 7 9 -9 1 -22 -5 -29 -11 -11
-11 -13 -10 -7 5 3 10 6 21 6 23 0 3 6 2 13 -2 6 -4 9 -4 5 1 -4 4 -3 14 3 21
12 15 3 37 -12 29 -5 -4 -9 -1 -9 5 0 6 -4 9 -9 5 -5 -3 -12 -1 -16 5 -4 6
-11 7 -17 4 -7 -4 -8 -2 -4 5 6 9 11 9 22 0 9 -8 14 -8 14 -1 0 6 -8 16 -17
21 -10 6 -13 11 -6 11 6 0 15 -5 18 -10 4 -6 11 -8 16 -5 5 3 6 -1 3 -9 -7
-17 4 -20 23 -8 9 6 4 13 -17 25 -20 12 -27 23 -23 34 4 9 2 14 -3 10 -6 -3
-16 -1 -24 5 -13 8 -13 9 0 5 9 -3 23 1 33 7 15 12 14 16 -13 47 l-29 34 4
-30 c2 -16 2 -24 -1 -17 -3 6 -11 9 -17 5 -7 -4 -6 1 2 10 12 15 11 17 -3 17
-9 0 -16 4 -16 10 0 5 7 7 15 4 8 -4 16 -1 16 5 1 6 2 19 3 29 1 9 5 24 11 32
7 12 6 13 -7 3 -8 -7 -18 -10 -21 -6 -4 3 -7 1 -7 -5 0 -7 6 -12 13 -12 9 0 8
-3 -2 -9 -9 -6 -10 -10 -2 -14 8 -4 8 -5 0 -3 -7 1 -14 12 -16 24 -2 16 4 26
22 34 19 8 22 14 13 20 -7 4 -17 8 -23 8 -5 0 -3 -5 5 -10 8 -5 11 -10 5 -10
-5 0 -17 5 -25 10 -11 7 -11 10 -2 10 7 0 11 4 7 9 -3 5 -1 12 4 16 6 3 8 12
5 20 -4 8 -10 12 -16 9 -5 -3 -4 3 4 15 7 12 17 21 22 21 4 0 2 -8 -5 -17 -13
-17 -12 -17 4 -4 16 13 20 13 28 0 5 -8 9 -9 9 -3 0 6 -9 19 -20 29 -11 10
-17 21 -15 25 3 5 1 10 -4 12 -5 1 -3 12 6 23 14 17 15 18 9 2 -3 -10 0 -27 8
-38 12 -18 14 -18 20 -4 9 24 7 32 -4 15 -6 -10 -9 -6 -8 17 1 28 4 31 27 27
17 -3 22 -2 13 4 -8 5 -13 12 -13 16 1 3 -2 5 -6 4 -5 -2 -7 -5 -6 -8 1 -3 -7
-6 -18 -6 -19 0 -19 1 -3 13 10 7 14 13 10 13 -5 0 -3 7 4 15 9 10 9 15 1 15
-6 0 -11 5 -11 11 0 8 4 9 13 0 8 -6 18 -7 23 -3 4 4 3 0 -4 -9 -10 -14 -10
-18 4 -23 9 -4 19 -4 22 -1 3 3 0 5 -6 5 -7 0 -12 5 -12 11 0 5 6 7 13 3 9 -6
9 -5 -1 8 -10 12 -9 18 3 28 8 7 12 16 10 21 -3 4 3 13 12 19 15 10 15 11 1 6
-18 -5 -33 20 -17 29 5 4 6 12 3 18 -4 7 -3 9 1 4 12 -10 44 42 38 62 -3 12
-2 12 7 -2 6 -9 9 -21 6 -25 -3 -4 3 -13 13 -19 13 -8 17 -7 17 8 0 9 -5 15
-11 12 -5 -4 -7 -3 -3 2 4 4 3 14 -3 21 -7 8 -6 14 2 20 7 4 9 3 5 -4 -3 -6 3
-16 14 -22 11 -6 20 -7 20 -3 0 4 5 2 12 -5 15 -15 32 -16 23 -2 -3 6 4 10 16
10 19 0 20 -2 8 -17 -13 -16 -12 -17 3 -5 14 11 18 10 28 -5 9 -14 10 -15 6
-1 -7 24 4 29 23 10 9 -10 13 -13 9 -8 -21 26 -4 27 18 1 15 -16 23 -24 20
-18 -4 7 -9 23 -11 35 -4 22 -3 22 10 5 11 -15 17 -17 35 -7 20 11 21 10 15
-12 -3 -12 -3 -18 2 -13 19 23 42 35 57 29 9 -3 14 -10 11 -15 -3 -4 -12 -6
-20 -2 -8 3 -15 1 -15 -5 0 -15 26 -9 49 12 16 15 24 16 35 7 10 -8 16 -9 21
-1 3 5 11 10 17 10 6 0 5 -7 -3 -17 -13 -16 -12 -17 3 -5 14 11 18 10 27 -5 6
-10 11 -13 11 -7 0 17 51 37 64 24 5 -5 15 -10 21 -10 5 0 4 4 -3 8 -14 9 -6
42 10 42 6 0 5 -6 -2 -15 -13 -16 -7 -19 35 -16 17 2 18 0 5 -9 -12 -9 -11
-10 7 -5 19 5 22 3 17 -12 -6 -16 -5 -15 9 2 17 22 14 37 -6 29 -7 -2 -21 3
-32 11 -20 16 -20 16 1 6 12 -6 24 -8 27 -4 4 3 13 1 20 -5 8 -7 16 -10 18 -7
3 2 5 -5 6 -16 1 -11 -2 -17 -7 -14 -5 3 -11 1 -14 -4 -4 -5 1 -8 10 -7 8 1
20 9 25 17 5 8 9 10 9 5 0 -5 6 -3 14 3 9 7 17 8 20 2 3 -5 1 -11 -6 -13 -8
-3 -8 -9 1 -24 10 -16 12 -16 7 -1 -4 12 1 21 17 27 16 6 17 9 5 9 -9 1 -19 5
-23 10 -3 6 4 8 17 5 13 -3 29 -6 36 -6 6 -1 12 -5 12 -9 0 -4 -6 -10 -12 -12
-10 -4 -10 -6 -1 -6 6 -1 19 9 27 21 17 24 26 21 29 -11 1 -12 5 -17 10 -12 5
5 4 18 -2 30 -15 27 0 27 17 0 11 -17 11 -24 0 -37 -11 -15 -11 -15 3 -5 9 7
19 10 23 6 4 -4 4 1 0 11 -6 16 -5 17 14 5 11 -7 19 -16 16 -20 -2 -4 1 -11 7
-15 8 -5 9 -3 4 6 -6 10 -3 12 11 7 18 -7 18 -7 0 8 -11 8 -23 15 -27 15 -10
0 -6 21 8 45 11 19 12 18 10 -7 -1 -15 2 -27 6 -27 5 0 15 -8 23 -18 14 -17
14 -16 4 5 -6 12 -16 20 -21 16 -7 -4 -7 2 1 15 9 18 30 21 30 5 0 -3 -4 -2
-10 1 -5 3 -10 1 -10 -4 0 -6 7 -11 16 -11 9 0 12 -5 8 -12 -5 -7 -3 -8 5 -4
7 5 10 14 7 22 -3 8 -1 14 3 14 15 0 20 -27 8 -40 -8 -8 -5 -8 10 1 13 8 25
20 28 28 4 11 3 12 -10 1 -8 -7 -15 -9 -15 -5 0 4 11 16 25 26 13 11 22 26 19
33 -3 8 -1 17 5 21 7 4 8 0 4 -10 -5 -15 -3 -15 16 -3 18 11 23 11 32 -2 9
-13 10 -12 5 3 -3 10 0 17 7 17 8 0 8 3 -2 9 -11 7 -11 9 0 14 8 3 3 5 -11 4
-21 -2 -25 2 -23 21 2 13 -1 21 -5 18 -5 -3 -9 1 -9 9 0 8 4 15 8 15 15 0 2
34 -17 42 -16 7 -16 8 4 4 32 -6 48 25 20 40 -18 10 -18 12 -4 17 10 4 15 3
11 -2 -3 -5 1 -8 7 -7 21 3 38 16 38 29 0 7 -5 4 -11 -6 -10 -17 -29 -15 -29
4 0 6 5 7 12 3 6 -4 8 -3 5 3 -8 13 20 26 35 16 7 -4 8 -1 4 6 -5 7 -14 10
-21 7 -7 -2 -25 9 -39 25 -14 16 -32 29 -39 29 -8 0 -7 4 3 10 12 7 12 12 3
21 -10 10 -14 7 -22 -12 -7 -17 -10 -19 -10 -6 -1 9 8 26 19 37 11 11 16 20
11 20 -6 0 -13 -4 -16 -10 -10 -16 -45 -32 -45 -20 0 5 6 10 14 10 8 0 17 7
20 16 9 23 7 31 -3 15 -5 -8 -23 -15 -40 -15 -25 -1 -28 1 -16 10 20 15 19 25
-2 17 -11 -4 -14 -3 -9 5 4 7 2 12 -4 12 -7 0 -10 -6 -7 -12 2 -7 1 -22 -4
-33 -5 -14 -8 -15 -8 -4 -1 20 -71 20 -87 0 -9 -11 -12 -12 -19 -1 -5 9 -4 11
3 6 7 -4 12 -3 12 2 0 17 -13 22 -28 10 -12 -10 -18 -8 -33 11 -14 17 -19 19
-19 8 0 -9 5 -19 10 -22 6 -3 10 -11 10 -18 0 -6 -10 1 -21 15 -20 25 -49 28
-49 6 0 -7 5 -7 13 0 10 8 13 6 14 -11 2 -17 0 -19 -7 -7 -9 13 -10 13 -10 0
-1 -12 -3 -11 -11 3 -6 9 -14 15 -20 12 -5 -4 -9 0 -9 7 0 9 -3 9 -10 -2 -9
-13 -10 -13 -11 0 -1 8 -1 18 0 23 0 4 -4 7 -10 7 -6 0 -8 -9 -4 -21 7 -22 2
-21 -35 5 -9 6 -6 1 7 -11 13 -12 19 -24 14 -28 -5 -3 -12 -1 -16 5 -7 11 -54
-18 -55 -34 0 -5 8 -2 17 5 11 10 14 10 9 2 -9 -15 3 -17 24 -3 13 8 12 10 -3
10 -10 0 -15 5 -12 10 5 8 11 8 20 0 9 -7 16 -6 25 5 11 13 15 13 21 3 5 -7 9
-8 9 -2 0 6 6 11 14 11 15 0 16 -21 1 -34 -4 -4 -5 -3 -1 4 4 8 -1 11 -16 11
-25 -2 -50 -17 -44 -27 7 -11 -69 -8 -76 3 -4 6 -2 17 5 26 9 11 7 11 -8 -2
-18 -14 -22 -15 -39 -2 -11 8 -24 14 -30 14 -5 0 -1 -6 10 -14 18 -14 18 -15
-3 -13 -13 1 -23 5 -23 10 0 4 -4 6 -9 3 -5 -4 -12 0 -14 6 -4 10 -6 10 -6 1
-1 -7 -7 -10 -15 -7 -17 6 -29 -23 -14 -32 7 -5 8 -2 3 6 -6 9 -4 11 5 5 9 -6
11 -4 5 6 -5 8 -4 10 0 6 5 -4 10 -15 11 -23 1 -9 0 -13 -3 -10 -4 3 -13 0
-21 -7 -13 -9 -14 -9 -8 1 4 6 3 12 -2 12 -5 0 -14 10 -20 23 -6 12 -11 16
-11 9 -1 -7 -6 -10 -11 -7 -6 4 -8 10 -5 15 3 4 -5 6 -17 2 -19 -5 -20 -6 -4
-12 10 -3 17 -9 17 -13 -3 -26 1 -30 14 -13 8 11 15 15 15 9 0 -14 -19 -27
-42 -28 -13 -1 -15 2 -7 11 8 9 5 16 -10 24 -12 6 -21 8 -21 5 0 -3 -12 3 -27
12 -15 10 -24 13 -20 6 4 -6 3 -14 -3 -18 -5 -3 -10 0 -10 7 0 9 -3 9 -10 -2
-5 -8 -10 -11 -10 -6 0 5 -6 4 -13 -2 -7 -6 -18 -7 -26 -2 -8 4 -21 6 -29 2
-11 -4 -13 -1 -7 9 6 11 5 12 -6 2 -20 -19 -33 -16 -18 5 13 15 12 16 -3 3
-10 -7 -15 -17 -12 -22 3 -5 0 -9 -5 -9 -6 0 -11 4 -11 10 0 12 -22 9 -32 -5
-5 -6 -8 -5 -8 3 0 8 -5 10 -12 6 -9 -5 -9 -2 1 9 14 17 26 24 17 9 -3 -5 1
-9 8 -9 8 0 12 6 9 14 -6 16 -9 16 -36 2 l-22 -12 20 23 c11 13 14 20 8 16 -8
-4 -13 -2 -13 4 0 7 -7 10 -15 6 -12 -4 -14 0 -11 17 3 17 -1 23 -14 23 -10 0
-17 -4 -14 -7 2 -4 0 -10 -6 -14 -6 -4 -7 -11 -4 -17 5 -7 2 -8 -5 -3 -9 5 -9
11 -3 17 12 12 -2 30 -28 41 -8 3 -3 5 12 4 15 -1 25 -4 22 -8 -2 -4 5 -5 17
-2 19 5 18 7 -10 19 -17 7 -31 16 -31 19 0 3 6 3 13 -1 7 -5 6 0 -3 11 -14 17
-13 18 4 12 15 -6 17 -5 7 7 -9 11 -9 15 1 19 7 3 4 5 -8 4 -14 -1 -20 -7 -19
-21 1 -12 0 -27 -3 -33 -6 -19 -21 -15 -17 5 1 9 -1 22 -6 28 -7 9 14 36 34
42 8 2 10 12 2 12 -3 0 -17 -7 -30 -16 -14 -9 -28 -14 -32 -10 -3 3 -2 6 4 6
5 0 22 11 36 24 17 16 22 27 15 34 -11 11 -2 35 11 28 3 -3 7 4 7 14 0 15 -4
17 -19 8 -24 -12 -38 0 -14 13 9 6 17 15 17 22 0 9 -3 8 -8 -1 -5 -7 -15 -10
-24 -7 -11 4 -15 19 -13 53 1 26 -2 54 -6 64 -7 13 -5 15 11 11 11 -3 23 -10
27 -16 4 -6 0 -8 -9 -5 -8 4 -15 0 -15 -7 0 -10 5 -11 17 -5 10 5 21 6 26 2 5
-4 2 1 -5 11 -12 15 -11 20 4 37 10 11 15 20 10 20 -4 0 -14 -8 -21 -17 -11
-15 -15 -16 -26 -4 -7 8 -8 11 -2 8 16 -9 27 24 14 37 -8 8 -11 7 -8 -3 2 -7
-3 -16 -9 -18 -15 -6 -17 13 -3 22 6 4 7 11 4 17 -4 6 1 6 14 -1 24 -13 43
-15 23 -2 -11 7 -9 10 8 16 11 3 21 11 21 16 0 13 -18 11 -23 -3 -2 -7 -8 -10
-12 -6 -11 11 15 39 29 31 6 -3 8 -3 4 2 -4 4 -3 16 3 27 9 18 8 18 -10 8 -16
-8 -26 -8 -39 0 -14 9 -13 10 7 4 17 -4 21 -3 16 6 -5 9 -4 11 3 6 7 -4 12 -2
12 3 0 6 5 10 12 9 7 -2 12 6 12 17 0 11 7 25 16 32 8 7 10 13 4 13 -17 0 -32
-22 -29 -43 3 -15 1 -16 -11 -6 -11 9 -14 9 -14 -1 0 -8 -3 -10 -6 -7 -4 4 -2
13 4 20 7 8 8 18 4 22 -4 5 -1 5 6 1 13 -8 12 19 -2 42 -5 8 -4 18 1 23 6 6
10 4 11 -6 1 -8 3 -22 4 -30 1 -8 5 -12 10 -9 5 3 7 13 6 22 -2 10 3 16 10 14
8 -1 11 2 7 8 -4 6 -10 9 -13 6 -3 -3 -11 -1 -19 5 -10 9 -19 7 -36 -7 -13
-12 -17 -13 -9 -3 6 9 8 20 4 24 -4 5 -1 5 6 1 6 -4 12 -2 12 4 0 6 5 8 10 5
6 -3 10 -1 10 4 0 10 -14 15 -33 12 -5 -1 -6 3 -2 8 3 6 13 7 21 4 14 -5 15
-3 5 15 -6 11 -11 24 -11 29 1 4 7 -3 14 -17 8 -14 12 -28 10 -32 -3 -5 0 -8
7 -8 8 0 8 -4 -1 -15 -9 -10 -9 -15 -1 -15 17 0 17 55 1 75 -5 6 -4 17 2 25 8
12 9 12 4 -2 -6 -19 27 -44 43 -33 15 9 6 38 -15 46 -17 7 -17 8 -1 8 31 2 32
1 33 -9 1 -5 3 -13 4 -17 1 -5 2 -11 1 -15 -2 -17 18 -7 24 12 5 16 10 17 30
8 14 -6 22 -14 20 -18 -2 -4 2 -7 10 -7 19 0 19 5 0 23 -8 9 -15 13 -15 9 0
-3 -9 -1 -19 5 -16 8 -22 6 -31 -7 -7 -12 -10 -13 -7 -3 2 8 -3 24 -12 35 -16
20 -16 20 5 2 17 -14 23 -15 27 -5 4 11 6 11 6 0 1 -7 6 -10 11 -7 6 3 10 2
10 -3 0 -5 8 -9 18 -9 34 0 43 -3 37 -12 -3 -5 -1 -12 4 -15 10 -7 9 13 -1 30
-5 7 6 10 33 10 31 -1 38 2 34 14 -3 8 5 2 19 -15 13 -16 22 -33 19 -37 -2 -5
1 -8 7 -8 7 0 9 7 6 16 -3 8 -2 12 4 9 5 -3 7 1 4 9 -4 11 1 14 23 12 15 -1
35 2 43 8 13 10 13 9 1 -6 -12 -16 -11 -18 13 -16 19 2 25 7 21 18 -3 9 1 7
10 -5 13 -16 17 -17 24 -6 7 11 9 11 13 0 3 -9 10 -7 26 9 12 12 22 18 22 14
0 -4 -5 -13 -12 -20 -9 -9 -5 -11 18 -9 16 1 32 6 35 10 3 5 9 1 12 -8 4 -9 3
-13 -3 -10 -6 3 -10 2 -10 -3 0 -5 11 -9 25 -9 14 0 25 4 25 9 0 5 -4 6 -10 3
-5 -3 -7 0 -4 9 4 10 17 14 40 12 28 -2 34 1 29 13 -4 13 -2 12 8 -1 8 -10 17
-15 20 -11 4 3 7 0 7 -8 0 -11 2 -11 10 1 5 8 10 11 10 5 0 -5 -5 -17 -10 -25
-7 -12 -10 -12 -10 -1 0 8 -6 11 -16 7 -8 -3 -13 -2 -10 2 2 4 -7 9 -20 10
-15 1 -23 -2 -19 -8 4 -6 10 -8 15 -5 5 3 16 -5 24 -17 9 -12 16 -18 16 -12 0
6 7 11 15 11 8 0 15 -4 15 -8 0 -12 37 -17 51 -7 11 8 10 9 -3 4 -13 -4 -15
-1 -11 12 6 14 4 15 -9 4 -19 -15 -31 -3 -17 18 6 11 9 12 9 2 0 -7 4 -11 9
-8 4 3 16 -3 26 -14 14 -16 20 -17 26 -8 5 8 8 5 6 -9 0 -12 -6 -19 -12 -15
-5 3 -4 -1 2 -10 7 -8 10 -18 6 -22 -4 -4 0 -4 10 0 9 3 17 10 17 16 0 5 -4 7
-9 4 -5 -4 -7 3 -4 14 7 28 20 33 19 8 -1 -12 6 -23 14 -26 13 -5 13 -3 1 12
-12 15 -12 17 0 14 8 -2 13 3 11 10 -1 8 2 11 8 7 8 -5 7 -11 -1 -21 -9 -10
-9 -14 0 -14 6 0 14 7 18 15 5 14 8 13 19 -4 16 -22 54 -18 54 7 0 13 3 12 15
-4 8 -10 15 -15 15 -10 0 5 8 2 17 -5 10 -8 14 -9 10 -2 -4 6 -3 14 2 17 5 4
8 -4 7 -16 -2 -20 2 -23 28 -21 17 1 33 2 36 3 3 1 9 2 14 1 10 -2 46 29 46
40 0 4 -9 5 -20 2 -11 -3 -20 -3 -20 0 0 2 9 7 20 10 13 3 24 -3 34 -18 15
-22 14 -24 -3 -20 -11 2 -22 -3 -25 -10 -3 -9 0 -12 10 -8 7 3 14 0 14 -6 0
-6 5 -11 11 -11 5 0 7 5 4 10 -3 6 1 13 10 16 13 5 13 9 3 23 -12 14 -11 15 5
2 14 -11 15 -16 5 -29 -12 -13 -10 -14 9 -2 12 8 19 18 16 24 -3 5 -1 6 5 2 6
-3 13 -2 17 4 3 5 1 10 -6 10 -7 0 -10 3 -6 6 14 15 24 -7 14 -30 -7 -13 -15
-22 -19 -20 -3 2 -9 0 -12 -5 -11 -17 19 -6 40 15 16 16 19 26 12 40 -9 18 -8
18 5 2 8 -10 18 -14 23 -10 5 4 -2 -5 -15 -20 -14 -16 -21 -31 -18 -35 4 -3 7
-1 7 5 0 7 5 12 11 12 5 0 7 -6 3 -12 -4 -7 -4 -10 1 -6 4 4 16 3 26 -3 11 -5
19 -6 18 -2 -3 20 2 27 11 13 7 -12 13 -11 36 10 l26 25 -7 -24 c-6 -21 -5
-22 8 -10 8 8 14 16 12 19 -3 5 28 37 32 33 11 -10 13 0 3 12 -7 9 -10 19 -6
22 4 4 11 1 16 -7 5 -8 13 -11 17 -6 4 5 2 11 -5 13 -6 3 -10 9 -6 14 3 5 13
5 24 -1 13 -7 21 -7 26 2 4 6 3 8 -2 5 -16 -9 -35 8 -28 26 3 9 11 14 17 10 6
-3 7 -1 3 5 -10 17 -14 15 -30 -15 -10 -19 -15 -23 -16 -11 0 9 5 20 10 23 6
4 7 11 4 17 -4 6 -3 8 3 5 6 -4 19 1 29 9 10 9 13 13 7 9 -8 -4 -13 0 -13 9 0
8 -8 17 -17 19 -17 4 -17 5 0 6 10 0 15 6 12 11 -10 16 1 11 16 -7 12 -14 12
-16 0 -8 -10 5 -12 4 -7 -4 12 -20 27 -2 16 20 -7 11 -7 19 -1 19 5 0 12 -6
14 -12 4 -10 6 -9 6 1 1 8 -6 19 -15 26 -16 11 -29 79 -14 70 4 -3 11 2 14 11
4 9 2 13 -5 8 -8 -4 -9 1 -4 17 7 21 6 22 -8 10 -9 -7 -14 -17 -11 -22 3 -5 1
-9 -5 -9 -5 0 -9 9 -8 19 0 11 4 18 7 16 3 -1 12 4 19 13 13 14 12 15 -7 10
-24 -7 -39 6 -21 18 8 5 9 3 4 -5 -4 -7 4 -5 19 4 32 21 32 21 4 21 -13 -1
-24 4 -26 9 -2 6 -10 17 -18 26 -8 9 -12 18 -9 21 3 3 -5 13 -17 24 l-23 19
18 -22 c11 -13 14 -23 8 -27 -14 -9 -9 -47 5 -42 7 3 18 -2 24 -10 9 -10 9
-14 1 -14 -6 0 -11 5 -11 11 0 5 -5 7 -10 4 -18 -11 -39 15 -35 43 4 25 3 24
-11 -6 -8 -18 -19 -30 -24 -27 -6 3 -10 8 -10 11 0 3 5 2 10 -1 6 -3 10 1 10
9 0 19 -11 20 -29 4 -11 -10 -13 -10 -7 0 9 15 1 15 -27 1 -21 -10 -21 -10 -2
6 11 8 25 13 32 11 7 -3 12 -2 12 2 -3 21 3 24 15 6 15 -19 15 -19 13 2 -1 21
-18 26 -33 11 -15 -15 -26 -6 -13 11 13 15 12 16 -3 3 -10 -7 -15 -17 -12 -22
3 -5 1 -9 -5 -9 -5 0 -15 8 -20 18 -6 9 -11 11 -11 5 0 -7 -5 -13 -11 -13 -5
0 -8 4 -5 8 2 4 -4 8 -14 8 -10 0 -16 -4 -14 -8 3 -4 -2 -8 -11 -8 -9 0 -14 4
-11 8 3 5 -1 9 -8 9 -11 0 -12 -4 -3 -18 6 -10 15 -15 21 -12 15 10 66 11 66
1 0 -4 -6 -8 -14 -8 -8 0 -17 -6 -19 -12 -4 -10 -6 -10 -6 0 -1 6 -9 12 -18
11 -11 0 -13 -3 -5 -6 6 -2 10 -9 6 -14 -3 -5 -14 1 -25 13 -20 22 -20 22 -16
2 3 -16 -1 -20 -16 -19 -11 1 -25 9 -31 17 -11 15 -13 15 -24 0 -10 -15 -12
-15 -21 -2 -8 11 -11 11 -11 2 0 -10 -5 -10 -22 -2 -21 10 -22 10 -5 -3 10 -9
15 -17 10 -20 -12 -7 -44 18 -35 28 4 5 1 5 -7 0 -12 -7 -12 -10 1 -19 8 -6
13 -18 11 -26 -3 -9 -1 -11 4 -5 11 14 33 17 33 5 0 -9 -22 -15 -43 -11 -5 1
-6 -9 -2 -21 5 -22 5 -21 -9 2 -9 14 -15 19 -16 11 0 -8 -3 -12 -6 -8 -3 3 -1
14 5 24 7 12 10 14 11 4 0 -8 3 -11 6 -8 9 9 -15 37 -32 37 -7 0 -22 -9 -32
-21 l-19 -20 0 25 c0 14 3 24 7 21 3 -2 7 2 7 10 0 11 -4 12 -14 4 -7 -7 -13
-17 -12 -23 3 -27 -2 -35 -18 -29 -16 6 -17 5 -3 -13 14 -18 14 -18 -4 -4 -11
8 -21 14 -23 13 -1 -2 -2 0 -1 5 2 4 7 6 11 4 5 -1 6 2 2 8 -3 6 0 7 9 4 10
-4 16 -1 16 7 0 7 -3 9 -7 6 -3 -4 -16 2 -28 13 -17 16 -22 17 -22 6 0 -8 4
-13 8 -10 4 2 10 0 13 -5 12 -19 -16 -22 -36 -4 -12 10 -18 13 -15 7 13 -22
-26 -27 -66 -9 -9 4 -23 2 -30 -4 -9 -7 -17 -7 -24 0 -7 7 -12 6 -16 -3 -4
-11 7 -14 49 -13 30 1 52 -1 49 -3 -7 -7 15 -32 27 -32 6 0 5 7 -2 15 -14 17
-14 17 18 20 12 1 22 -2 22 -7 0 -5 -10 -6 -22 -2 -20 6 -21 5 -10 -9 11 -13
10 -17 -9 -27 -12 -7 -19 -8 -15 -2 8 13 -10 25 -41 30 -14 1 -23 -3 -23 -10
0 -8 -5 -6 -11 5 -5 9 -15 17 -20 17 -6 0 -7 -6 -2 -12 11 -19 13 -39 2 -32
-5 3 -7 9 -4 13 2 5 -4 16 -15 26 -16 14 -22 15 -35 5 -8 -7 -12 -17 -8 -23 3
-6 1 -7 -5 -3 -7 4 -12 2 -12 -5 0 -7 -3 -9 -6 -6 -4 4 -1 14 7 23 8 10 13 20
12 23 -2 3 1 6 6 6 5 0 13 3 17 7 3 4 -3 6 -15 3 -14 -3 -21 1 -21 12 0 27
-11 8 -13 -23 -2 -22 -7 -28 -21 -26 -12 2 -15 -1 -11 -8 6 -9 2 -9 -14 -1
-23 13 -28 3 -8 -19 10 -12 9 -12 -6 -1 -9 8 -16 20 -15 29 2 8 -2 17 -9 19
-7 3 -11 -3 -8 -15 2 -14 -2 -18 -18 -17 -12 2 -21 8 -19 14 1 6 -5 14 -13 17
-8 3 -12 11 -8 18 3 6 3 8 -2 4 -4 -4 -15 -2 -24 5 -14 11 -14 10 -2 -5 12
-16 11 -18 -4 -18 -10 0 -15 -3 -12 -7 14 -13 -14 -33 -33 -23 -9 5 -21 6 -25
2 -5 -4 -5 -1 0 7 6 10 2 12 -16 7 -22 -6 -23 -6 -6 7 9 8 17 18 17 22 0 4 -6
3 -13 -3 -14 -12 -35 -11 -55 2 -8 5 -18 4 -25 -3 -18 -18 -31 -13 -16 6 13
15 11 15 -13 -1 -27 -18 -41 -40 -31 -50 13 -12 22 -5 18 14 -2 11 0 20 6 20
10 0 8 -28 -5 -49 -7 -11 -10 -11 -18 3 -5 9 -13 14 -19 11 -5 -4 -9 -1 -9 4
0 6 6 11 13 11 8 0 7 4 -3 10 -8 5 -10 10 -5 10 6 0 20 8 33 18 21 17 22 18 3
18 -11 0 -18 -4 -15 -7 8 -14 -18 -21 -28 -8 -8 11 -9 10 -4 -3 3 -11 -2 -21
-13 -27 -21 -12 -32 -5 -25 14 3 7 1 16 -5 20 -7 3 -8 0 -5 -9 6 -15 -6 -15
-38 -2 -10 5 -23 6 -30 3 -7 -3 -3 -6 10 -6 13 -1 21 -5 17 -11 -3 -5 -12 -7
-20 -3 -9 3 -22 0 -30 -7 -10 -9 -15 -9 -15 -1 0 6 5 11 12 11 7 0 6 5 -4 13
-9 6 -18 19 -21 27 -3 8 -4 -1 -2 -21 2 -30 0 -35 -16 -34 -10 1 -22 5 -26 9
-5 4 -3 7 2 6 20 -4 35 0 35 11 0 6 -9 9 -20 6 -11 -3 -23 -1 -26 5 -3 5 -11
2 -18 -8 -10 -13 -15 -14 -21 -4 -5 9 -4 11 3 6 7 -4 12 -3 12 3 0 5 -8 14
-17 20 -16 9 -16 10 4 8 12 0 19 -6 16 -12 -4 -5 -3 -7 2 -3 4 4 14 3 22 -3
10 -9 13 -8 13 0 0 7 5 9 12 5 7 -4 8 -3 4 4 -4 6 -14 8 -23 5 -10 -4 -14 -2
-10 4 4 7 -7 10 -33 8 -37 -3 -39 -2 -29 19 9 18 8 19 -3 5 -7 -9 -16 -17 -20
-18 -28 -6 -36 -15 -33 -33 3 -11 1 -17 -3 -14 -4 4 -7 13 -7 19 0 5 -6 12
-14 15 -8 3 -11 0 -7 -6 3 -6 1 -14 -5 -18 -8 -4 -9 -3 -5 4 4 7 1 12 -6 12
-9 0 -10 2 -2 8 8 5 7 11 -4 22 -14 13 -15 12 -9 -3 4 -10 2 -17 -5 -17 -7 0
-6 -6 2 -16 11 -12 11 -15 -1 -12 -8 2 -13 -3 -11 -10 1 -8 -2 -11 -8 -7 -8 5
-7 11 1 21 9 11 8 14 -2 14 -12 0 -12 2 -1 9 11 7 10 9 -3 14 -9 4 -13 3 -10
-3 8 -13 -1 -13 -25 0 -16 8 -18 8 -14 -4 3 -9 11 -14 16 -13 6 1 12 -4 14
-11 1 -7 0 -8 -3 -2 -3 8 -9 7 -19 -1 -8 -6 -11 -16 -7 -22 3 -6 1 -7 -6 -3
-8 5 -9 12 -2 19 10 13 -12 41 -23 30 -3 -4 -6 -2 -6 3 0 6 5 15 12 22 7 7 9
12 5 12 -4 0 -12 -9 -19 -19z m236 -50 c-4 -3 -9 0 -11 7 -4 9 -8 10 -18 2
-10 -9 -13 -7 -10 7 2 10 4 20 4 22 1 2 10 -4 21 -14 11 -10 17 -21 14 -24z
m1546 4 c11 -13 10 -14 -4 -9 -9 3 -16 10 -16 15 0 13 6 11 20 -6z m-290 -19
c14 -18 14 -18 -7 -6 -12 8 -19 18 -16 23 3 4 6 7 7 5 1 -2 8 -12 16 -22z
m-20 -20 c0 -4 -7 -3 -15 4 -8 7 -15 9 -15 6 0 -4 -5 -4 -10 -1 -6 4 -8 10 -5
15 7 11 45 -10 45 -24z m-816 11 c3 3 6 2 6 -4 0 -6 -12 -10 -26 -10 -15 0
-30 -7 -35 -14 -12 -20 -11 -2 1 22 8 15 15 17 29 9 10 -5 21 -6 25 -3z m683
-5 c-10 -10 -15 -21 -12 -24 3 -3 -8 -5 -25 -6 -16 0 -30 4 -30 9 0 6 4 7 10
4 5 -3 18 -1 27 4 10 6 14 11 10 11 -15 0 4 20 20 20 15 0 14 -2 0 -18z m-873
-8 c3 -8 1 -16 -5 -19 -5 -4 -7 -10 -5 -14 3 -3 -4 -7 -15 -7 -19 0 -18 1 3
19 21 16 22 18 3 15 -11 -2 -23 -7 -27 -13 -5 -6 -8 -5 -8 2 0 7 -7 10 -17 7
-15 -5 -15 -4 -3 4 8 6 17 9 21 6 4 -2 10 -1 13 4 8 13 35 10 40 -4z m342 -2
c-3 -3 0 -12 6 -21 10 -13 10 -14 -2 -4 -9 9 -19 9 -34 2 -20 -10 -20 -10 -2
5 11 9 16 16 12 16 -4 0 -4 5 -1 10 4 6 11 8 16 4 6 -3 8 -9 5 -12z m-293 -7
c-3 -9 -8 -14 -10 -11 -3 3 -2 9 2 15 9 16 15 13 8 -4z m-573 -5 c0 -5 -5 -10
-11 -10 -5 0 -7 5 -4 10 3 6 8 10 11 10 2 0 4 -4 4 -10z m1086 -14 c2 -13 1
-13 -3 -1 -2 8 -9 13 -14 10 -5 -4 -9 -1 -9 5 0 18 25 5 26 -14z m424 20 c0
-2 -7 -7 -16 -10 -8 -3 -12 -2 -9 4 6 10 25 14 25 6z m325 -5 c3 -5 2 -12 -3
-15 -5 -3 -9 1 -9 9 0 17 3 19 12 6z m-1288 -23 c-3 -8 -6 -5 -6 6 -1 11 2 17
5 13 3 -3 4 -12 1 -19z m147 7 c-4 -8 -11 -12 -16 -9 -6 4 -5 10 3 15 19 12
19 11 13 -6z m27 -8 c-10 -9 -11 -8 -5 6 3 10 9 15 12 12 3 -3 0 -11 -7 -18z
m54 11 c5 4 5 1 1 -6 -6 -10 -11 -10 -22 -1 -8 6 -14 14 -14 16 0 3 6 0 13 -6
8 -6 18 -7 22 -3z m-895 -53 c-7 -9 -15 -13 -19 -10 -3 3 1 10 9 15 21 14 24
12 10 -5z m-75 -35 c3 -6 -1 -7 -9 -4 -18 7 -21 14 -7 14 6 0 13 -4 16 -10z
m2075 -60 c0 -5 -2 -10 -4 -10 -3 0 -8 5 -11 10 -3 6 -1 10 4 10 6 0 11 -4 11
-10z m-2047 -142 c4 -8 6 -7 6 4 1 9 5 19 10 22 14 9 8 -28 -6 -37 -7 -4 -10
-15 -6 -25 5 -14 3 -13 -10 3 -8 10 -12 26 -9 34 4 10 1 13 -11 8 -17 -6 -31
5 -20 16 8 8 40 -9 46 -25z m718 -6 c-7 -2 -18 1 -23 6 -8 8 -4 9 13 5 13 -4
18 -8 10 -11z m136 -4 c-3 -8 -6 -5 -6 6 -1 11 2 17 5 13 3 -3 4 -12 1 -19z
m248 12 c-3 -5 -12 -10 -18 -10 -7 0 -6 4 3 10 19 12 23 12 15 0z m899 -9 c3
-5 -1 -11 -9 -15 -8 -3 -17 0 -21 6 -4 7 -3 8 4 4 7 -4 12 -2 12 3 0 13 7 14
14 2z m-1959 -11 c-3 -5 -12 -10 -18 -10 -7 0 -6 4 3 10 19 12 23 12 15 0z
m1936 -27 c13 -16 20 -25 15 -20 -5 4 -18 0 -28 -10 -10 -9 -18 -12 -18 -8 0
5 -11 -2 -24 -14 -16 -15 -26 -19 -31 -11 -5 8 -11 8 -21 -1 -10 -8 -18 -9
-25 -2 -7 7 -4 15 7 24 12 9 15 10 10 2 -11 -20 12 -15 24 5 11 16 11 16 6 0
-3 -10 -2 -18 3 -18 15 0 51 37 43 44 -4 4 -2 7 3 6 22 -5 27 1 15 15 -22 27
-4 16 21 -12z m-1374 -8 c0 -17 -13 -20 -21 -6 -4 5 0 12 6 14 7 3 13 6 14 6
0 1 1 -6 1 -14z m938 -5 c3 -5 1 -10 -4 -10 -6 0 -11 5 -11 10 0 6 2 10 4 10
3 0 8 -4 11 -10z m60 1 c-3 -6 4 -15 15 -21 15 -8 20 -8 21 2 0 10 2 10 6 0 2
-6 10 -9 16 -5 7 3 8 2 4 -3 -5 -5 -12 -9 -15 -9 -4 0 -13 -4 -21 -9 -10 -7
-12 -6 -6 4 5 9 2 10 -12 6 -17 -5 -20 -2 -20 19 0 14 4 25 9 25 5 0 7 -4 3
-9z m-1081 -151 c-6 -6 -10 -3 -10 10 0 13 4 16 10 10 7 -7 7 -13 0 -20z
m-480 12 c-16 -10 -14 -44 3 -38 26 10 12 -4 -19 -19 -23 -11 -28 -12 -16 -2
13 10 14 17 6 25 -13 13 6 42 26 42 8 0 8 -2 0 -8z m-3 -111 c-7 -5 -11 -14
-7 -20 5 -7 1 -9 -9 -5 -12 5 -13 9 -4 20 6 8 17 14 23 14 6 0 5 -4 -3 -9z
m499 -4 c0 -2 -9 -12 -19 -21 -15 -14 -21 -15 -27 -4 -4 7 -4 10 1 6 4 -4 14
-1 22 7 14 14 23 19 23 12z m-39 -54 c12 -16 12 -17 -2 -6 -9 7 -19 10 -22 6
-4 -3 -7 -1 -7 5 0 17 16 15 31 -5z m-457 -12 c4 -5 -3 -7 -14 -4 -23 6 -26
13 -6 13 8 0 17 -4 20 -9z m-2 -50 c-8 -4 -13 -12 -12 -17 1 -5 -4 -10 -12
-12 -9 -2 -8 0 2 7 8 6 11 11 7 11 -5 0 -5 5 -2 10 3 6 12 10 18 10 8 0 8 -3
-1 -9z m-4 -165 c-7 -8 -17 -12 -22 -9 -4 3 -2 9 5 14 22 13 31 11 17 -5z
m448 -15 c-4 -5 -3 -16 0 -25 5 -14 9 -14 23 -4 11 8 10 5 -3 -10 -26 -30 -34
-28 -31 11 3 37 3 37 11 37 3 0 3 -4 0 -9z m24 -67 c0 -9 -28 -34 -39 -34 -5
0 -13 4 -16 10 -4 6 1 7 11 3 13 -5 15 -3 9 7 -5 9 -4 11 3 6 7 -4 12 -2 12 3
0 6 5 11 10 11 6 0 10 -3 10 -6z m-459 -47 c-10 -9 -11 -8 -5 6 3 10 9 15 12
12 3 -3 0 -11 -7 -18z m-18 -101 c5 -12 -2 -14 -31 -7 -2 1 0 6 3 11 9 14 22
12 28 -4z m11 -35 c4 -5 -3 -7 -14 -4 -23 6 -26 13 -6 13 8 0 17 -4 20 -9z
m529 -16 c-3 -9 -8 -14 -10 -11 -3 3 -2 9 2 15 9 16 15 13 8 -4z m31 -34 c-5
-3 -12 -10 -15 -14 -4 -4 -9 -1 -13 8 -3 9 -2 13 4 10 6 -3 10 -1 10 5 0 6 5
8 11 4 6 -3 7 -9 3 -13z m-562 0 c-8 -4 -13 -12 -12 -17 1 -5 -4 -10 -12 -12
-9 -2 -8 0 2 7 8 6 11 11 7 11 -5 0 -5 5 -2 10 3 6 12 10 18 10 8 0 8 -3 -1
-9z m841 -50 c4 -1 7 -3 7 -6 0 -26 -1 -29 -8 -20 -11 16 -52 18 -52 3 0 -9
-3 -9 -10 2 -5 8 -10 20 -10 25 0 6 4 4 9 -3 7 -11 9 -10 14 3 5 12 11 13 24
6 10 -5 21 -9 26 -10z m200 5 c18 2 27 -2 27 -12 0 -15 -1 -15 -39 -19 -13 -1
-28 -9 -33 -16 -8 -12 -9 -11 -5 1 2 8 0 25 -4 38 -8 19 -6 21 9 13 9 -5 29
-7 45 -5z m-316 -10 c4 -3 12 -1 20 5 9 9 13 8 13 0 0 -6 -5 -11 -11 -11 -5 0
-7 -5 -4 -10 4 -6 11 -7 17 -4 7 4 8 2 4 -5 -6 -8 -12 -9 -20 -2 -9 7 -17 7
-26 -2 -12 -10 -12 -9 -1 6 15 20 2 23 -18 5 -11 -11 -13 -10 -7 0 5 9 -2 11
-31 7 -36 -4 -37 -3 -14 9 23 13 67 14 78 2z m483 4 c0 -5 -2 -10 -4 -10 -3 0
-8 5 -11 10 -3 6 -1 10 4 10 6 0 11 -4 11 -10z m-92 -28 c15 12 16 11 3 -4
-14 -19 -32 -15 -30 5 0 8 2 8 6 -1 4 -10 8 -10 21 0z m-184 -10 c3 -5 -1 -9
-9 -9 -8 0 -15 4 -15 9 0 4 4 8 9 8 6 0 12 -4 15 -8z m666 -3 c0 -5 4 -8 9 -5
4 3 16 -3 26 -14 14 -16 15 -22 5 -35 -15 -18 -30 -11 -30 16 0 13 -4 18 -12
13 -7 -4 -10 -4 -6 1 4 4 3 14 -3 22 -9 9 -8 13 0 13 6 0 11 -5 11 -11z
m-1602 -73 c-7 -8 -17 -12 -22 -9 -4 3 -2 9 5 14 22 13 31 11 17 -5z m1607 5
c3 -5 2 -12 -3 -15 -5 -3 -9 1 -9 9 0 17 3 19 12 6z m19 -49 c3 -5 -1 -9 -9
-9 -8 0 -12 4 -9 9 3 4 7 8 9 8 2 0 6 -4 9 -8z m-1613 -85 c-10 -9 -11 -8 -5
6 3 10 9 15 12 12 3 -3 0 -11 -7 -18z m1599 -57 c0 -5 -5 -10 -11 -10 -5 0 -7
5 -4 10 3 6 8 10 11 10 2 0 4 -4 4 -10z m37 -16 c-3 -3 -12 -4 -19 -1 -8 3 -5
6 6 6 11 1 17 -2 13 -5z m-1654 -28 c5 -12 -2 -14 -31 -7 -2 1 0 6 3 11 9 14
22 12 28 -4z m1151 -22 c3 -8 2 -12 -4 -9 -6 3 -10 10 -10 16 0 14 7 11 14 -7z
m403 -6 c-3 -8 -6 -5 -6 6 -1 11 2 17 5 13 3 -3 4 -12 1 -19z m-340 -3 c0 -8
-4 -15 -9 -15 -10 0 -11 14 -1 23 9 10 10 9 10 -8z m-1203 -4 c4 -5 -3 -7 -14
-4 -23 6 -26 13 -6 13 8 0 17 -4 20 -9z m838 -33 c-6 -6 -12 -6 -16 1 -5 8
-13 8 -26 1 -15 -8 -21 -6 -30 11 -10 18 -10 19 8 10 11 -6 22 -8 25 -4 4 3
14 0 23 -8 15 -12 16 -11 10 11 -6 22 -5 23 5 7 7 -13 8 -22 1 -29z m57 35
c-4 -22 3 -25 17 -7 15 18 15 18 4 -3 -14 -31 -24 -35 -46 -18 -17 14 -17 14
-1 9 10 -4 17 -3 16 2 -2 13 0 24 6 24 3 0 4 -3 4 -7z m47 -8 c-3 -8 -1 -15 5
-15 6 0 7 -5 3 -11 -4 -8 -9 -7 -14 2 -8 12 -3 39 7 39 3 0 3 -7 -1 -15z m33
8 c-4 -22 3 -25 17 -7 14 18 15 18 4 -3 -9 -19 -8 -23 5 -23 9 0 14 4 11 8 -2
4 -1 14 5 22 7 13 9 13 9 0 0 -13 1 -13 10 0 7 12 9 10 7 -7 0 -12 -3 -20 -5
-18 -3 2 -11 -3 -19 -11 -14 -13 -18 -13 -39 7 -13 12 -21 26 -18 30 6 11 14
12 13 2z m92 -16 c-10 -9 -11 -8 -5 6 3 10 9 15 12 12 3 -3 0 -11 -7 -18z
m-444 1 c20 12 86 8 89 -6 1 -7 0 -8 -3 -2 -5 12 -24 14 -22 3 3 -20 -3 -22
-25 -8 -15 10 -27 12 -30 6 -9 -14 -44 -9 -51 6 -3 10 0 11 13 4 10 -5 23 -6
29 -3z m119 -7 c0 -11 -4 -17 -8 -15 -4 3 -8 12 -8 20 0 8 4 14 8 14 4 0 8 -9
8 -19z m569 8 c11 -16 1 -19 -13 -3 -7 8 -8 14 -3 14 5 0 13 -5 16 -11z m22
-11 c-3 -8 -6 -5 -6 6 -1 11 2 17 5 13 3 -3 4 -12 1 -19z m93 3 c7 -15 7 -19
-5 -17 -20 3 -28 13 -20 25 9 15 13 14 25 -8z m-182 -3 c-2 -6 -11 -12 -20
-14 -11 -1 -15 3 -11 12 6 17 36 19 31 2z m-744 -38 c-6 -6 -10 -3 -10 10 0
13 4 16 10 10 7 -7 7 -13 0 -20z m-502 11 c-8 -4 -13 -12 -12 -17 1 -5 -4 -10
-12 -12 -9 -2 -8 0 2 7 8 6 11 11 7 11 -5 0 -5 5 -2 10 3 6 12 10 18 10 8 0 8
-3 -1 -9z m459 -74 c-10 -9 -11 -8 -5 6 3 10 9 15 12 12 3 -3 0 -11 -7 -18z
m25 -32 c3 -22 -24 -41 -39 -26 -9 10 -8 11 8 5 17 -7 18 -5 8 7 -10 12 -10
18 -1 27 13 13 21 9 24 -13z m-479 -98 c0 -8 -6 -14 -14 -14 -9 0 -10 4 -2 14
6 7 12 13 14 13 1 0 2 -6 2 -13z m-11 -42 c-8 -8 -18 -15 -22 -15 -3 0 -1 7 6
15 7 8 17 15 22 15 5 0 3 -7 -6 -15z m11 -118 c0 -8 -6 -14 -14 -14 -9 0 -10
4 -2 14 6 7 12 13 14 13 1 0 2 -6 2 -13z m366 -12 c-3 -9 -8 -14 -10 -11 -3 3
-2 9 2 15 9 16 15 13 8 -4z m-377 -30 c-8 -8 -18 -15 -22 -15 -3 0 -1 7 6 15
7 8 17 15 22 15 5 0 3 -7 -6 -15z m376 -37 c-2 -10 -6 -18 -7 -18 -1 0 -5 8
-7 18 -3 11 0 19 7 19 7 0 10 -8 7 -19z m-365 -81 c0 -8 -6 -14 -14 -14 -9 0
-10 4 -2 14 6 7 12 13 14 13 1 0 2 -6 2 -13z m443 -49 c0 -4 -6 -8 -12 -8 -7
0 -13 11 -13 25 0 23 1 24 13 8 6 -9 12 -20 12 -25z m-454 7 c-8 -8 -18 -15
-22 -15 -3 0 -1 7 6 15 7 8 17 15 22 15 5 0 3 -7 -6 -15z m11 -118 c0 -8 -6
-14 -14 -14 -9 0 -10 4 -2 14 6 7 12 13 14 13 1 0 2 -6 2 -13z m453 -29 c0 -9
4 -8 10 2 5 8 10 10 10 4 0 -6 -12 -21 -27 -35 -14 -13 -23 -18 -19 -11 4 6 2
12 -3 12 -6 0 -11 5 -11 10 0 6 3 9 8 9 19 -3 25 2 12 11 -13 8 -12 10 3 10 9
0 17 -6 17 -12z m-464 -13 c-8 -8 -18 -15 -22 -15 -3 0 -1 7 6 15 7 8 17 15
22 15 5 0 3 -7 -6 -15z m464 -86 c0 -5 -5 -9 -11 -9 -5 0 -7 5 -4 10 3 6 1 10
-4 10 -6 0 -11 5 -11 11 0 8 5 8 15 -1 8 -7 15 -16 15 -21z m-453 -32 c0 -8
-6 -14 -14 -14 -9 0 -10 4 -2 14 6 7 12 13 14 13 1 0 2 -6 2 -13z m453 -22
c-8 -9 -6 -15 7 -20 16 -6 17 -8 2 -18 -25 -19 -25 -23 -5 -46 11 -12 15 -21
10 -21 -5 0 -17 9 -27 20 -10 12 -22 18 -27 15 -6 -3 -10 -1 -10 5 0 7 8 9 21
5 18 -6 19 -5 8 13 -7 12 -18 18 -24 15 -5 -2 1 5 15 17 l25 21 -25 -5 c-14
-3 -19 -3 -12 0 6 3 10 10 7 15 -4 5 2 6 11 2 13 -5 15 -3 9 8 -8 12 -6 12 8
0 12 -10 14 -17 7 -26z m-464 -20 c-8 -8 -18 -15 -22 -15 -3 0 -1 7 6 15 7 8
17 15 22 15 5 0 3 -7 -6 -15z m1864 -89 c0 -2 -7 -3 -15 -3 -8 0 -15 5 -15 11
0 6 -5 4 -10 -4 -9 -13 -10 -13 -10 0 0 13 -1 13 -10 0 -5 -8 -10 -10 -10 -4
0 24 22 33 46 17 13 -8 24 -16 24 -17z m-127 -5 c3 -15 1 -18 -11 -14 -11 5
-13 3 -7 -8 6 -11 5 -11 -5 -2 -7 6 -18 9 -25 7 -7 -3 -16 -1 -20 5 -3 6 0 9
8 5 8 -3 20 2 27 11 17 20 27 19 33 -4z m51 -9 c2 -4 -4 -8 -14 -8 -10 0 -16
4 -14 8 3 4 9 8 14 8 5 0 11 -4 14 -8z m146 -2 c0 -5 -4 -10 -10 -10 -5 0 -10
5 -10 10 0 6 5 10 10 10 6 0 10 -4 10 -10z m-1923 -13 c0 -8 -6 -14 -14 -14
-9 0 -10 4 -2 14 6 7 12 13 14 13 1 0 2 -6 2 -13z m428 -7 c-3 -5 -12 -10 -18
-10 -7 0 -6 4 3 10 19 12 23 12 15 0z m1059 -28 c15 -18 15 -19 -11 -16 -16 1
-30 2 -32 3 -3 1 19 31 24 31 1 0 9 -8 19 -18z m91 -11 c3 -5 2 -12 -3 -15 -5
-3 -9 1 -9 9 0 17 3 19 12 6z m-1588 -29 c-13 -3 -15 -7 -8 -16 8 -9 7 -13 -3
-13 -8 0 -12 7 -11 16 2 9 4 19 4 23 1 4 9 4 19 0 16 -6 16 -7 -1 -10z m900
-3 c2 -16 0 -17 -18 -1 -10 9 -19 17 -19 17 0 0 8 1 18 1 10 0 19 -8 19 -17z
m478 4 c4 -11 0 -11 -18 -2 -19 11 -20 10 -10 -3 10 -12 10 -15 -2 -15 -8 0
-11 5 -8 10 4 6 -2 8 -14 5 -11 -3 -28 -1 -37 4 -15 9 -21 -1 -17 -26 1 -5 -4
-4 -12 2 -8 7 -17 9 -20 5 -4 -3 -7 -2 -7 4 0 28 134 42 145 16z m-845 -13 c0
-5 -5 -10 -11 -10 -5 0 -7 5 -4 10 3 6 8 10 11 10 2 0 4 -4 4 -10z m455 0 c3
-5 1 -10 -4 -10 -6 0 -11 5 -11 10 0 6 2 10 4 10 3 0 8 -4 11 -10z m-355 -60
c0 -5 -5 -10 -11 -10 -5 0 -7 5 -4 10 3 6 8 10 11 10 2 0 4 -4 4 -10z m1343
-92 c-9 -10 -19 -16 -22 -13 -3 4 0 10 8 14 7 5 12 11 12 15 -3 23 0 30 9 16
6 -10 4 -20 -7 -32z m-1963 -49 c0 -5 -3 -8 -7 -8 -22 4 -25 -3 -7 -16 16 -13
17 -14 1 -9 -10 4 -17 3 -16 -2 3 -18 -1 -25 -11 -19 -6 4 -7 12 -3 18 4 7 8
14 9 17 6 33 34 48 34 19z m1970 2 c0 -12 -20 -25 -27 -18 -7 7 6 27 18 27 5
0 9 -4 9 -9z m-45 -21 c3 -6 -1 -7 -9 -4 -18 7 -21 14 -7 14 6 0 13 -4 16 -10z
m25 -20 c-8 -5 -19 -10 -25 -10 -5 0 -3 5 5 10 8 5 20 10 25 10 6 0 3 -5 -5
-10z m6 -38 c-19 -19 -53 -23 -53 -6 0 7 7 10 15 6 11 -4 13 -1 7 8 -5 8 -4
11 3 6 6 -3 13 -2 17 4 4 6 11 7 17 4 6 -4 4 -12 -6 -22z m-898 -67 c-3 -3
-13 7 -23 22 l-17 28 23 -22 c12 -12 20 -25 17 -28z m36 10 c-4 -8 -11 -12
-16 -9 -6 4 -5 10 3 15 19 12 19 11 13 -6z m36 11 c0 -2 -8 -10 -17 -17 -16
-13 -17 -12 -4 4 13 16 21 21 21 13z m-1085 -16 c3 -6 -1 -7 -9 -4 -18 7 -21
14 -7 14 6 0 13 -4 16 -10z m399 2 c3 -5 -1 -9 -9 -9 -8 0 -12 4 -9 9 3 4 7 8
9 8 2 0 6 -4 9 -8z m526 4 c0 -3 -4 -8 -10 -11 -5 -3 -10 -1 -10 4 0 6 5 11
10 11 6 0 10 -2 10 -4z m-889 -23 c13 -16 12 -17 -3 -4 -17 13 -22 21 -14 21
2 0 10 -8 17 -17z m-36 -11 c-3 -3 -11 0 -18 7 -9 10 -8 11 6 5 10 -3 15 -9
12 -12z m130 8 c3 -5 1 -10 -4 -10 -6 0 -11 5 -11 10 0 6 2 10 4 10 3 0 8 -4
11 -10z m45 -4 c-7 -7 -13 -7 -20 0 -6 6 -3 10 10 10 13 0 16 -4 10 -10z m60
4 c0 -5 -5 -10 -11 -10 -5 0 -7 5 -4 10 3 6 8 10 11 10 2 0 4 -4 4 -10z m135
0 c3 -5 1 -10 -4 -10 -6 0 -11 5 -11 10 0 6 2 10 4 10 3 0 8 -4 11 -10z m1022
-22 c4 -28 -6 -18 -12 12 -2 12 -1 20 2 16 4 -4 8 -16 10 -28z m298 22 c3 -5
1 -10 -4 -10 -6 0 -11 5 -11 10 0 6 2 10 4 10 3 0 8 -4 11 -10z m-1500 -21
c-4 -6 0 -9 10 -7 10 2 19 -3 21 -10 1 -7 0 -8 -3 -2 -3 8 -9 8 -18 0 -9 -8
-15 -8 -20 0 -6 10 1 30 11 30 3 0 2 -5 -1 -11z m1238 -9 c-10 -11 -19 -20
-21 -20 -1 0 2 9 8 20 6 11 15 20 20 20 6 0 2 -9 -7 -20z m52 3 c9 -25 8 -27
-17 -27 -12 0 -24 6 -26 13 -3 10 2 11 19 6 21 -7 22 -6 10 9 -7 9 -9 16 -3
16 5 0 13 -8 17 -17z m208 -2 c4 -1 12 -1 19 -1 6 0 3 -6 -7 -14 -21 -15 -40
-12 -30 5 4 5 1 9 -4 9 -6 0 -11 -6 -12 -12 0 -10 -2 -10 -6 0 -4 10 -10 10
-30 -3 -13 -9 -32 -14 -41 -10 -16 6 -16 8 1 20 10 7 26 11 36 8 10 -3 22 0
25 6 5 7 13 8 24 2 9 -5 20 -9 25 -10z m-1527 -9 c1 -7 0 -8 -3 -2 -2 5 -9 8
-14 4 -5 -3 -9 0 -9 6 0 15 23 7 26 -8z"/>
<path d="M3279 3453 c-13 -16 -12 -17 4 -4 16 13 21 21 13 21 -2 0 -10 -8 -17
-17z"/>
<path d="M2360 2549 c0 -8 49 -9 54 0 2 3 -9 6 -25 6 -16 1 -29 -2 -29 -6z"/>
<path d="M2978 2485 c5 -29 8 -31 15 -11 3 8 0 19 -7 25 -10 9 -12 6 -8 -14z"/>
<path d="M1825 2031 c-3 -5 -2 -12 3 -15 5 -3 9 1 9 9 0 17 -3 19 -12 6z"/>
<path d="M1800 1240 c0 -5 5 -10 11 -10 5 0 7 5 4 10 -3 6 -8 10 -11 10 -2 0
-4 -4 -4 -10z"/>
<path d="M2826 1092 c-3 -5 1 -9 9 -9 8 0 12 4 9 9 -3 4 -7 8 -9 8 -2 0 -6 -4
-9 -8z"/>
<path d="M3309 763 c-13 -16 -12 -17 4 -4 16 13 21 21 13 21 -2 0 -10 -8 -17
-17z"/>
<path d="M1635 3930 c3 -5 8 -10 11 -10 2 0 4 5 4 10 0 6 -5 10 -11 10 -5 0
-7 -4 -4 -10z"/>
<path d="M1850 3936 c0 -2 8 -10 18 -17 15 -13 16 -12 3 4 -13 16 -21 21 -21
13z"/>
<path d="M1701 3923 c-2 -20 16 -24 30 -5 13 15 12 16 -3 4 -13 -10 -17 -10
-21 0 -4 9 -6 9 -6 1z"/>
<path d="M2040 3900 c-9 -6 -10 -10 -3 -10 6 0 15 5 18 10 8 12 4 12 -15 0z"/>
<path d="M2890 3899 c0 -5 5 -7 10 -4 6 3 10 8 10 11 0 2 -4 4 -10 4 -5 0 -10
-5 -10 -11z"/>
<path d="M3060 3901 c0 -7 -4 -9 -10 -6 -6 4 -7 -1 -3 -11 6 -15 7 -15 15 1 6
9 7 19 4 22 -3 4 -6 1 -6 -6z"/>
<path d="M1467 3881 c2 -8 -2 -11 -11 -8 -10 4 -13 1 -9 -9 3 -7 0 -14 -6 -14
-10 0 -15 14 -12 33 1 5 -3 6 -8 2 -7 -4 -6 -14 1 -30 14 -30 19 -31 36 -4 10
16 17 18 25 10 8 -8 14 -7 24 0 15 13 17 29 3 29 -5 0 -10 -7 -10 -16 0 -8 -5
-12 -10 -9 -6 4 -7 11 -4 17 4 6 2 8 -4 4 -5 -3 -12 -3 -15 1 -2 5 -2 2 0 -6z"/>
<path d="M1916 3878 c3 -5 10 -6 15 -3 13 9 11 12 -6 12 -8 0 -12 -4 -9 -9z"/>
<path d="M2195 3880 c-2 -3 5 -7 16 -7 10 -1 19 2 19 6 0 9 -29 10 -35 1z"/>
<path d="M2259 3873 c5 -10 10 -22 11 -28 1 -5 4 -12 7 -15 4 -3 3 0 -1 7 -3
6 -2 14 4 18 6 3 10 -4 10 -16 0 -26 12 -18 17 11 2 14 -2 18 -17 15 -13 -2
-20 2 -20 11 0 8 -5 14 -10 14 -7 0 -7 -6 -1 -17z"/>
<path d="M2366 3877 c3 -10 9 -15 12 -12 3 3 0 11 -7 18 -10 9 -11 8 -5 -6z"/>
<path d="M2401 3876 c-19 -23 -22 -56 -4 -49 12 5 12 7 1 14 -11 7 -10 9 1 9
8 0 11 3 8 7 -4 3 -2 12 4 20 6 7 9 13 6 13 -2 0 -10 -6 -16 -14z"/>
<path d="M2690 3880 c0 -5 5 -10 11 -10 5 0 7 5 4 10 -3 6 -8 10 -11 10 -2 0
-4 -4 -4 -10z"/>
<path d="M2476 3868 c3 -5 10 -6 15 -3 13 9 11 12 -6 12 -8 0 -12 -4 -9 -9z"/>
<path d="M2036 3853 c-6 -14 -5 -15 5 -6 7 7 10 15 7 18 -3 3 -9 -2 -12 -12z"/>
<path d="M2433 3861 c10 -4 18 -11 18 -16 -1 -6 10 -10 25 -10 l25 -1 -23 18
c-13 10 -32 17 -43 17 -18 0 -19 -1 -2 -8z"/>
<path d="M1275 3780 c3 -5 8 -10 11 -10 2 0 4 5 4 10 0 6 -5 10 -11 10 -5 0
-7 -4 -4 -10z"/>
<path d="M3393 3728 c-11 -19 -12 -38 -2 -38 6 0 7 -5 3 -12 -4 -6 -3 -8 4 -4
6 3 15 -2 21 -11 9 -16 10 -16 8 4 0 12 -6 21 -11 20 -6 -1 -9 10 -8 26 4 29
-2 35 -15 15z"/>
<path d="M3407 3607 c-3 -8 1 -14 8 -14 7 0 11 6 8 14 -3 7 -6 13 -8 13 -2 0
-5 -6 -8 -13z"/>
<path d="M3390 3562 c0 -5 7 -9 15 -9 8 0 12 4 9 9 -3 4 -9 8 -15 8 -5 0 -9
-4 -9 -8z"/>
<path d="M2087 3479 c3 -10 12 -20 21 -24 14 -5 15 -4 5 6 -7 7 -13 18 -13 24
1 5 10 -1 20 -14 11 -13 20 -20 20 -17 0 4 12 -1 28 -10 25 -15 26 -15 7 0
-11 9 -20 24 -20 34 0 13 -9 17 -36 18 -30 1 -36 -2 -32 -17z m63 -1 c0 -4 -4
-8 -9 -8 -6 0 -12 4 -15 8 -3 5 1 9 9 9 8 0 15 -4 15 -9z"/>
<path d="M2203 3471 l-1 -26 12 23 c13 25 28 20 20 -6 -5 -14 -4 -14 6 1 13
21 6 36 -18 34 -11 0 -18 -10 -19 -26z"/>
<path d="M2486 3485 c3 -8 10 -15 16 -15 5 0 7 -4 4 -8 -3 -5 1 -9 9 -9 21 0
18 9 -10 30 -20 14 -24 15 -19 2z"/>
<path d="M2265 3470 c-10 -11 -13 -20 -7 -20 7 0 12 5 12 11 0 6 7 9 14 6 10
-4 13 -1 9 9 -7 18 -6 18 -28 -6z"/>
<path d="M2337 3472 c1 -8 3 -16 3 -19 0 -3 7 0 15 7 17 14 20 30 4 30 -5 0
-7 -4 -4 -10 3 -5 2 -10 -4 -10 -5 0 -11 3 -14 8 -2 4 -2 1 0 -6z"/>
<path d="M2381 3468 c-7 -11 -7 -18 -1 -18 5 0 10 5 10 10 0 6 7 10 15 10 8 0
15 4 15 8 0 16 -27 9 -39 -10z"/>
<path d="M1275 3460 c-3 -6 1 -7 9 -4 18 7 21 14 7 14 -6 0 -13 -4 -16 -10z"/>
<path d="M1986 3462 c-3 -5 1 -9 9 -9 8 0 12 4 9 9 -3 4 -7 8 -9 8 -2 0 -6 -4
-9 -8z"/>
<path d="M3360 3460 c-9 -6 -10 -10 -3 -10 6 0 15 5 18 10 8 12 4 12 -15 0z"/>
<path d="M2453 3443 c0 -8 6 -9 19 -2 10 5 18 11 18 12 0 2 -8 3 -18 3 -10 0
-19 -6 -19 -13z"/>
<path d="M2070 3442 c0 -5 7 -9 15 -9 8 0 12 4 9 9 -3 4 -9 8 -15 8 -5 0 -9
-4 -9 -8z"/>
<path d="M2637 3436 c-17 -13 -17 -14 1 -18 12 -4 18 1 18 13 0 11 0 19 -1 19
0 0 -8 -7 -18 -14z"/>
<path d="M1275 3431 c-3 -5 -2 -12 3 -15 5 -3 9 1 9 9 0 17 -3 19 -12 6z"/>
<path d="M2736 3419 c-26 -16 -27 -18 -8 -16 12 1 22 5 22 10 0 4 5 5 10 2 6
-4 8 -11 5 -16 -4 -5 -2 -9 3 -9 16 0 22 28 9 38 -8 6 -22 3 -41 -9z"/>
<path d="M2822 3423 c-19 -7 -34 -41 -22 -48 6 -4 10 -3 9 2 -3 20 2 34 11 28
6 -3 10 -1 10 4 0 6 4 11 10 11 5 0 7 -8 4 -17 -5 -14 -4 -15 4 -4 8 11 10 11
14 0 3 -10 6 -10 12 -1 4 7 2 12 -4 12 -6 0 -9 4 -6 8 5 9 -22 12 -42 5z"/>
<path d="M1327 3406 c-3 -7 0 -19 6 -26 9 -10 9 -12 -4 -7 -9 3 -16 0 -16 -7
0 -10 18 -13 46 -7 2 1 -3 9 -12 19 -13 14 -14 21 -5 30 8 8 8 12 1 12 -6 0
-13 -6 -16 -14z"/>
<path d="M1270 3396 c0 -2 8 -10 18 -17 15 -13 16 -12 3 4 -13 16 -21 21 -21
13z"/>
<path d="M2952 3391 c-11 -7 -11 -9 0 -14 9 -3 15 1 15 9 0 8 -1 14 -1 14 -1
0 -7 -4 -14 -9z"/>
<path d="M2666 3378 c3 -5 10 -6 15 -3 13 9 11 12 -6 12 -8 0 -12 -4 -9 -9z"/>
<path d="M2708 3383 c7 -3 16 -2 19 1 4 3 -2 6 -13 5 -11 0 -14 -3 -6 -6z"/>
<path d="M2995 3381 c-3 -5 -2 -12 3 -15 5 -3 9 1 9 9 0 17 -3 19 -12 6z"/>
<path d="M3236 3373 c-6 -14 -5 -15 5 -6 7 7 10 15 7 18 -3 3 -9 -2 -12 -12z"/>
<path d="M3115 3369 c-4 -6 -5 -12 -2 -15 2 -3 7 2 10 11 7 17 1 20 -8 4z"/>
<path d="M3276 3367 c3 -10 9 -15 12 -12 3 3 0 11 -7 18 -10 9 -11 8 -5 -6z"/>
<path d="M3196 3362 c-3 -5 1 -9 9 -9 8 0 12 4 9 9 -3 4 -7 8 -9 8 -2 0 -6 -4
-9 -8z"/>
<path d="M1287 3279 c7 -7 15 -10 18 -7 3 3 -2 9 -12 12 -14 6 -15 5 -6 -5z"/>
<path d="M1274 3262 c4 -7 1 -12 -6 -12 -8 0 -6 -5 5 -11 10 -6 21 -8 24 -5 4
3 1 6 -6 6 -7 0 -10 4 -6 9 3 5 0 13 -6 17 -8 4 -9 3 -5 -4z"/>
<path d="M1266 3201 c-4 -5 3 -7 14 -4 23 6 26 13 6 13 -8 0 -17 -4 -20 -9z"/>
<path d="M1886 3202 c-3 -5 1 -9 9 -9 8 0 12 4 9 9 -3 4 -7 8 -9 8 -2 0 -6 -4
-9 -8z"/>
<path d="M1269 3083 c-13 -16 -12 -17 4 -4 16 13 21 21 13 21 -2 0 -10 -8 -17
-17z"/>
<path d="M1300 3080 c-9 -6 -10 -10 -3 -10 6 0 15 5 18 10 8 12 4 12 -15 0z"/>
<path d="M1275 3011 c-6 -11 13 -26 22 -17 4 3 1 6 -6 6 -7 0 -9 5 -6 10 3 6
4 10 1 10 -3 0 -7 -4 -11 -9z"/>
<path d="M1325 3000 c3 -5 8 -10 11 -10 2 0 4 5 4 10 0 6 -5 10 -11 10 -5 0
-7 -4 -4 -10z"/>
<path d="M1809 3000 c-6 -21 -4 -62 3 -66 4 -3 8 2 8 10 0 9 5 15 11 14 6 -2
13 5 14 16 3 14 1 16 -8 7 -13 -13 -27 -14 -27 -3 0 5 10 14 23 20 l22 10 -22
-1 c-13 -1 -24 -4 -24 -7z"/>
<path d="M1265 2960 c-6 -9 -4 -11 5 -5 10 6 12 4 7 -7 -6 -16 17 -20 28 -5 3
4 2 5 -2 2 -3 -3 -11 3 -18 12 -9 13 -14 13 -20 3z"/>
<path d="M1260 2916 c0 -2 7 -7 16 -10 8 -3 12 -2 9 4 -6 10 -25 14 -25 6z"/>
<path d="M1316 2894 c18 -14 18 -15 -6 -9 -21 5 -22 4 -7 -5 23 -15 42 -3 26
16 -6 8 -16 14 -22 14 -6 0 -2 -7 9 -16z"/>
<path d="M1265 2840 c-3 -6 1 -7 9 -4 18 7 21 14 7 14 -6 0 -13 -4 -16 -10z"/>
<path d="M1274 2812 c3 -5 0 -13 -6 -15 -8 -3 -6 -6 5 -6 19 -1 23 14 5 25 -6
4 -8 3 -4 -4z"/>
<path d="M1815 2760 c3 -5 8 -10 11 -10 2 0 4 5 4 10 0 6 -5 10 -11 10 -5 0
-7 -4 -4 -10z"/>
<path d="M1271 2727 c-13 -21 -12 -21 5 -5 10 10 16 20 13 22 -3 3 -11 -5 -18
-17z"/>
<path d="M1876 2718 c3 -5 10 -6 15 -3 13 9 11 12 -6 12 -8 0 -12 -4 -9 -9z"/>
<path d="M1274 2692 c3 -5 0 -13 -6 -15 -8 -3 -6 -6 5 -6 19 -1 23 14 5 25 -6
4 -8 3 -4 -4z"/>
<path d="M2710 2659 c0 -5 5 -7 10 -4 6 3 10 8 10 11 0 2 -4 4 -10 4 -5 0 -10
-5 -10 -11z"/>
<path d="M2690 2649 c0 -19 26 -33 35 -18 4 5 12 6 18 2 16 -10 88 -12 82 -2
-3 4 1 10 7 12 9 4 10 6 1 6 -6 1 -15 -3 -18 -9 -10 -16 -25 -12 -26 8 0 16
-1 16 -8 -1 -8 -22 -21 -24 -32 -6 -6 10 -11 10 -22 0 -13 -10 -17 -9 -26 6
-9 16 -10 16 -11 2z"/>
<path d="M2595 2640 c3 -5 8 -10 11 -10 2 0 4 5 4 10 0 6 -5 10 -11 10 -5 0
-7 -4 -4 -10z"/>
<path d="M2465 2620 c-3 -6 1 -7 9 -4 18 7 21 14 7 14 -6 0 -13 -4 -16 -10z"/>
<path d="M1269 2603 c-13 -16 -12 -17 4 -4 9 7 17 15 17 17 0 8 -8 3 -21 -13z"/>
<path d="M2293 2605 c-3 -9 -3 -18 -1 -21 3 -3 8 4 11 16 6 23 -1 27 -10 5z"/>
<path d="M1300 2600 c-9 -6 -10 -10 -3 -10 6 0 15 5 18 10 8 12 4 12 -15 0z"/>
<path d="M1986 2598 c3 -5 10 -6 15 -3 13 9 11 12 -6 12 -8 0 -12 -4 -9 -9z"/>
<path d="M2095 2590 c-3 -6 1 -7 9 -4 18 7 21 14 7 14 -6 0 -13 -4 -16 -10z"/>
<path d="M2975 2580 c3 -5 8 -10 11 -10 2 0 4 5 4 10 0 6 -5 10 -11 10 -5 0
-7 -4 -4 -10z"/>
<path d="M2985 2550 c-3 -6 1 -7 9 -4 18 7 21 14 7 14 -6 0 -13 -4 -16 -10z"/>
<path d="M1275 2531 c-6 -11 13 -26 22 -17 4 3 1 6 -6 6 -7 0 -9 5 -6 10 3 6
4 10 1 10 -3 0 -7 -4 -11 -9z"/>
<path d="M1325 2520 c3 -5 8 -10 11 -10 2 0 4 5 4 10 0 6 -5 10 -11 10 -5 0
-7 -4 -4 -10z"/>
<path d="M3006 2518 c3 -4 9 -8 15 -8 5 0 9 4 9 8 0 5 -7 9 -15 9 -8 0 -12 -4
-9 -9z"/>
<path d="M1265 2480 c-6 -9 -4 -11 5 -5 10 6 12 4 7 -7 -6 -16 17 -20 28 -5 3
4 2 5 -2 2 -3 -3 -11 3 -18 12 -9 13 -14 13 -20 3z"/>
<path d="M1260 2436 c0 -2 7 -7 16 -10 8 -3 12 -2 9 4 -6 10 -25 14 -25 6z"/>
<path d="M1316 2414 c18 -14 18 -15 -6 -9 -21 5 -22 4 -7 -5 23 -15 42 -3 26
16 -6 8 -16 14 -22 14 -6 0 -2 -7 9 -16z"/>
<path d="M3020 2406 c0 -2 7 -7 16 -10 8 -3 12 -2 9 4 -6 10 -25 14 -25 6z"/>
<path d="M3003 2378 c-12 -20 -13 -68 -1 -68 6 0 5 -6 -2 -15 -19 -22 -8 -25
13 -3 9 10 12 18 6 18 -13 0 -8 42 6 52 6 5 4 8 -5 8 -13 0 -13 1 0 10 9 6 10
10 3 10 -6 0 -15 -6 -20 -12z"/>
<path d="M1265 2360 c-3 -6 1 -7 9 -4 18 7 21 14 7 14 -6 0 -13 -4 -16 -10z"/>
<path d="M1274 2332 c3 -5 0 -13 -6 -15 -8 -3 -6 -6 5 -6 19 -1 23 14 5 25 -6
4 -8 3 -4 -4z"/>
<path d="M3030 2290 c-9 -6 -10 -10 -3 -10 6 0 15 5 18 10 8 12 4 12 -15 0z"/>
<path d="M1271 2247 c-13 -21 -12 -21 5 -5 10 10 16 20 13 22 -3 3 -11 -5 -18
-17z"/>
<path d="M1274 2212 c3 -5 0 -13 -6 -15 -8 -3 -6 -6 5 -6 19 -1 23 14 5 25 -6
4 -8 3 -4 -4z"/>
<path d="M2961 2196 c-19 -20 -20 -24 -6 -36 10 -8 15 -9 15 -1 0 6 -5 11 -11
11 -5 0 -7 5 -4 10 5 8 11 7 21 -1 12 -10 17 -9 27 0 9 10 8 11 -8 5 -17 -7
-18 -6 -7 8 21 26 -3 30 -27 4z"/>
<path d="M1300 2120 c-9 -6 -10 -10 -3 -10 6 0 15 5 18 10 8 12 4 12 -15 0z"/>
<path d="M1950 2126 c0 -2 7 -7 16 -10 8 -3 12 -2 9 4 -6 10 -25 14 -25 6z"/>
<path d="M2271 2113 c0 -11 3 -13 6 -5 2 6 10 9 15 6 7 -4 8 -2 4 4 -11 18
-26 14 -25 -5z"/>
<path d="M2403 2123 c-7 -2 -13 -9 -13 -15 0 -7 5 -7 13 1 8 6 17 8 20 4 4 -3
7 -1 7 5 0 13 -7 14 -27 5z"/>
<path d="M2950 2119 c0 -5 5 -7 10 -4 6 3 10 8 10 11 0 2 -4 4 -10 4 -5 0 -10
-5 -10 -11z"/>
<path d="M1884 2108 c-4 -7 -3 -8 4 -4 7 4 12 3 12 -2 0 -6 8 -13 17 -16 15
-6 15 -4 -2 14 -21 23 -22 24 -31 8z"/>
<path d="M2493 2105 c0 -8 4 -12 9 -9 5 3 6 10 3 15 -9 13 -12 11 -12 -6z"/>
<path d="M2880 2100 c-9 -6 -10 -10 -3 -10 6 0 15 5 18 10 8 12 4 12 -15 0z"/>
<path d="M1861 2076 c-10 -12 -9 -14 5 -12 10 2 20 8 22 14 5 17 -13 15 -27
-2z"/>
<path d="M2546 2082 c-2 -4 4 -8 14 -8 10 0 16 4 14 8 -3 4 -9 8 -14 8 -5 0
-11 -4 -14 -8z"/>
<path d="M1274 2062 c3 -5 0 -13 -6 -15 -10 -4 -10 -6 -1 -6 7 -1 10 -8 6 -18
-3 -10 -3 -15 1 -12 12 11 15 48 4 55 -6 4 -8 3 -4 -4z"/>
<path d="M1895 2060 c-3 -5 -1 -10 4 -10 6 0 11 5 11 10 0 6 -2 10 -4 10 -3 0
-8 -4 -11 -10z"/>
<path d="M1325 1980 c3 -5 8 -10 11 -10 2 0 4 5 4 10 0 6 -5 10 -11 10 -5 0
-7 -4 -4 -10z"/>
<path d="M1855 1980 c3 -5 8 -10 11 -10 2 0 4 5 4 10 0 6 -5 10 -11 10 -5 0
-7 -4 -4 -10z"/>
<path d="M1273 1932 c0 -11 5 -18 9 -16 4 3 8 0 8 -7 0 -7 3 -10 6 -6 3 3 -1
16 -9 28 -16 22 -16 22 -14 1z"/>
<path d="M1280 1875 c-7 -9 -11 -17 -9 -20 3 -2 10 5 17 15 14 24 10 26 -8 5z"/>
<path d="M1820 1880 c8 -5 20 -10 25 -10 6 0 3 5 -5 10 -8 5 -19 10 -25 10 -5
0 -3 -5 5 -10z"/>
<path d="M1325 1820 c3 -5 8 -10 11 -10 2 0 4 5 4 10 0 6 -5 10 -11 10 -5 0
-7 -4 -4 -10z"/>
<path d="M1273 1772 c0 -11 5 -18 9 -16 4 3 8 0 8 -7 0 -7 3 -10 6 -6 3 3 -1
16 -9 28 -16 22 -16 22 -14 1z"/>
<path d="M1769 1786 c-1 -3 -2 -9 -3 -13 -1 -5 -5 -14 -9 -20 -5 -7 -4 -13 0
-13 14 0 34 38 23 45 -6 3 -11 4 -11 1z"/>
<path d="M1789 1743 c-13 -16 -12 -17 4 -4 9 7 17 15 17 17 0 8 -8 3 -21 -13z"/>
<path d="M1280 1715 c-7 -9 -11 -17 -9 -20 3 -2 10 5 17 15 14 24 10 26 -8 5z"/>
<path d="M1325 1660 c3 -5 8 -10 11 -10 2 0 4 5 4 10 0 6 -5 10 -11 10 -5 0
-7 -4 -4 -10z"/>
<path d="M1794 1636 c1 -8 5 -18 8 -22 4 -3 5 1 4 10 -1 8 -5 18 -8 22 -4 3
-5 -1 -4 -10z"/>
<path d="M1273 1612 c0 -11 5 -18 9 -16 4 3 8 0 8 -7 0 -7 3 -10 6 -6 3 3 -1
16 -9 28 -16 22 -16 22 -14 1z"/>
<path d="M1280 1555 c-7 -9 -11 -17 -9 -20 3 -2 10 5 17 15 14 24 10 26 -8 5z"/>
<path d="M1845 1520 c-4 -6 -10 -8 -15 -5 -5 3 -11 2 -14 -3 -2 -4 4 -8 14 -9
10 -1 21 5 24 13 6 16 0 19 -9 4z"/>
<path d="M1325 1500 c3 -5 8 -10 11 -10 2 0 4 5 4 10 0 6 -5 10 -11 10 -5 0
-7 -4 -4 -10z"/>
<path d="M1273 1452 c0 -11 5 -18 9 -16 4 3 8 0 8 -7 0 -7 3 -10 6 -6 3 3 -1
16 -9 28 -16 22 -16 22 -14 1z"/>
<path d="M1280 1395 c-7 -9 -11 -17 -9 -20 3 -2 10 5 17 15 14 24 10 26 -8 5z"/>
<path d="M1325 1340 c3 -5 8 -10 11 -10 2 0 4 5 4 10 0 6 -5 10 -11 10 -5 0
-7 -4 -4 -10z"/>
<path d="M1273 1292 c0 -11 5 -18 9 -16 4 3 8 0 8 -7 0 -7 3 -10 6 -6 3 3 -1
16 -9 28 -16 22 -16 22 -14 1z"/>
<path d="M1280 1235 c-7 -9 -11 -17 -9 -20 3 -2 10 5 17 15 14 24 10 26 -8 5z"/>
<path d="M3275 1240 c-3 -5 -1 -10 4 -10 6 0 11 5 11 10 0 6 -2 10 -4 10 -3 0
-8 -4 -11 -10z"/>
<path d="M3194 1215 c1 -8 6 -18 11 -22 4 -4 5 -3 2 4 -4 6 -2 13 5 15 8 3 6
6 -4 10 -10 4 -15 2 -14 -7z"/>
<path d="M3276 1205 c6 -16 5 -18 -7 -7 -7 6 -18 12 -25 12 -18 0 -24 -27 -9
-40 12 -10 13 -8 10 9 -4 23 5 27 22 10 8 -8 13 -7 18 1 4 6 2 17 -4 23 -9 9
-11 7 -5 -8z"/>
<path d="M3124 1198 c10 -6 22 -6 26 -2 5 5 -3 10 -18 11 -22 1 -24 0 -8 -9z"/>
<path d="M3313 1204 c-12 -5 28 -55 44 -55 11 0 33 -42 27 -51 -3 -4 2 -5 10
-2 20 7 20 23 1 47 -7 11 -11 26 -9 35 5 14 4 14 -6 -1 -11 -16 -12 -16 -35 0
-12 10 -21 21 -18 26 5 8 4 8 -14 1z m85 -89 c-3 -3 -9 2 -12 12 -6 14 -5 15
5 6 7 -7 10 -15 7 -18z"/>
<path d="M3340 1206 c0 -2 8 -10 18 -17 15 -13 16 -12 3 4 -13 16 -21 21 -21
13z"/>
<path d="M1325 1180 c3 -5 8 -10 11 -10 2 0 4 5 4 10 0 6 -5 10 -11 10 -5 0
-7 -4 -4 -10z"/>
<path d="M2935 1160 c-3 -5 -1 -10 4 -10 6 0 11 5 11 10 0 6 -2 10 -4 10 -3 0
-8 -4 -11 -10z"/>
<path d="M2986 1155 c4 -9 3 -15 -2 -14 -19 3 -34 -1 -34 -10 0 -5 8 -8 18 -7
9 2 20 -1 23 -6 4 -6 9 -6 13 1 4 6 3 11 -3 11 -6 0 -8 6 -5 14 3 8 1 17 -5
21 -7 4 -8 0 -5 -10z"/>
<path d="M1273 1132 c0 -11 5 -18 9 -16 4 3 8 0 8 -7 0 -7 3 -10 6 -6 3 3 -1
16 -9 28 -16 22 -16 22 -14 1z"/>
<path d="M2870 1131 c-7 -13 -7 -22 0 -26 11 -7 11 -8 14 23 3 27 0 28 -14 3z"/>
<path d="M3415 1140 c3 -5 8 -10 11 -10 2 0 4 5 4 10 0 6 -5 10 -11 10 -5 0
-7 -4 -4 -10z"/>
<path d="M1824 1129 c-8 -14 13 -18 30 -6 16 12 16 13 -4 13 -12 0 -23 -4 -26
-7z"/>
<path d="M2282 1118 c-15 -15 -15 -28 0 -28 6 0 8 3 5 7 -4 3 -2 12 4 20 14
16 7 17 -9 1z"/>
<path d="M2606 1118 c3 -5 10 -6 15 -3 13 9 11 12 -6 12 -8 0 -12 -4 -9 -9z"/>
<path d="M1844 1102 c-8 -5 -5 -13 7 -26 17 -17 19 -18 19 -3 0 9 -5 17 -11
17 -5 0 -7 5 -4 10 7 12 4 12 -11 2z"/>
<path d="M2410 1105 c0 -7 30 -13 34 -7 3 4 -4 9 -15 9 -10 1 -19 0 -19 -2z"/>
<path d="M2533 1090 c-7 -25 -20 -26 -26 -2 -4 15 -5 15 -6 0 0 -9 3 -19 8
-22 15 -10 40 5 34 20 -4 10 0 12 11 8 9 -3 16 -4 16 -1 0 3 -7 8 -16 11 -11
4 -18 -1 -21 -14z"/>
<path d="M1886 1078 c3 -4 9 -8 15 -8 5 0 9 4 9 8 0 5 -7 9 -15 9 -8 0 -12 -4
-9 -9z"/>
<path d="M2450 1079 c0 -5 -4 -7 -10 -4 -5 3 -10 2 -10 -4 0 -19 16 -19 28 0
7 11 8 19 2 19 -5 0 -10 -5 -10 -11z"/>
<path d="M1282 1044 c-7 -8 -8 -14 -3 -14 10 0 25 19 20 25 -2 1 -10 -3 -17
-11z"/>
<path d="M1915 1039 c-5 -6 7 -19 32 -33 7 -4 16 2 22 13 9 16 8 18 -11 13
-13 -3 -19 -1 -15 5 3 5 -1 10 -9 10 -8 0 -17 -4 -19 -8z"/>
<path d="M1297 1004 c3 -7 9 -14 14 -14 14 0 10 17 -5 23 -10 4 -13 1 -9 -9z"/>
<path d="M1273 971 c0 -11 5 -17 9 -15 4 3 8 0 8 -7 0 -7 3 -9 6 -6 4 4 2 13
-4 20 -7 8 -9 17 -5 20 3 4 1 7 -5 7 -6 0 -10 -9 -9 -19z"/>
<path d="M3390 980 c-13 -8 -12 -10 3 -10 9 0 17 5 17 10 0 12 -1 12 -20 0z"/>
<path d="M1326 967 c3 -10 9 -15 12 -12 3 3 0 11 -7 18 -10 9 -11 8 -5 -6z"/>
<path d="M3355 949 c6 -32 13 -34 13 -4 0 14 -4 25 -9 25 -4 0 -6 -10 -4 -21z"/>
<path d="M1318 933 c6 -2 12 -9 12 -14 0 -4 -6 -6 -14 -3 -8 3 -17 1 -21 -5
-4 -7 0 -8 11 -4 12 4 15 3 10 -6 -6 -10 -3 -10 12 0 16 10 18 16 10 26 -6 7
-16 13 -22 12 -7 0 -6 -2 2 -6z"/>
<path d="M1273 893 c0 -11 7 -20 14 -20 10 0 10 4 1 16 -7 9 -13 18 -15 20 -1
2 -1 -5 0 -16z"/>
<path d="M1310 860 c0 -5 5 -10 11 -10 5 0 7 5 4 10 -3 6 -8 10 -11 10 -2 0
-4 -4 -4 -10z"/>
<path d="M1270 821 c0 -6 4 -12 8 -15 5 -3 9 1 9 9 0 8 -4 15 -9 15 -4 0 -8
-4 -8 -9z"/>
<path d="M3354 809 c-3 -6 -2 -15 3 -20 5 -5 9 -1 9 11 0 23 -2 24 -12 9z"/>
<path d="M1276 773 c-6 -14 -5 -15 5 -6 7 7 10 15 7 18 -3 3 -9 -2 -12 -12z"/>
<path d="M1301 753 c0 -11 3 -13 6 -5 2 6 10 9 15 6 7 -4 8 -2 4 4 -11 18 -26
14 -25 -5z"/>
<path d="M1266 742 c-3 -5 1 -9 9 -9 8 0 15 4 15 9 0 4 -4 8 -9 8 -6 0 -12 -4
-15 -8z"/>
<path d="M3320 726 c0 -2 8 -10 18 -17 15 -13 16 -12 3 4 -13 16 -21 21 -21
13z"/>
<path d="M1985 710 c-10 -17 12 -37 25 -24 8 8 6 15 -4 23 -10 9 -16 9 -21 1z"/>
<path d="M1926 694 c-11 -7 -22 -11 -26 -9 -4 2 -7 -2 -7 -10 0 -8 4 -15 9
-15 4 0 8 5 8 11 0 8 5 7 15 -1 13 -11 14 -10 9 3 -6 16 10 18 33 4 9 -6 11
-3 7 7 -8 21 -27 26 -48 10z"/>
<path d="M2537 693 c-4 -3 -7 -11 -7 -17 0 -6 5 -4 10 4 6 10 10 11 10 3 0
-15 35 -12 51 4 9 9 7 11 -4 9 -9 -1 -20 -5 -23 -9 -4 -4 -12 -2 -19 3 -7 5
-15 7 -18 3z"/>
<path d="M1280 680 c-9 -6 -10 -10 -3 -10 6 0 15 5 18 10 8 12 4 12 -15 0z"/>
<path d="M1310 680 c0 -5 5 -10 11 -10 5 0 7 5 4 10 -3 6 -8 10 -11 10 -2 0
-4 -4 -4 -10z"/>
<path d="M1821 663 c-5 -10 -13 -16 -17 -13 -4 3 -9 -6 -11 -20 -2 -19 -1 -21
7 -10 5 8 14 15 20 15 5 0 10 4 9 9 0 5 5 12 11 16 8 5 9 10 2 14 -6 4 -15 -2
-21 -11z"/>
<path d="M1998 663 c7 -3 16 -2 19 1 4 3 -2 6 -13 5 -11 0 -14 -3 -6 -6z"/>
<path d="M2308 663 c7 -3 16 -2 19 1 4 3 -2 6 -13 5 -11 0 -14 -3 -6 -6z"/>
<path d="M2455 660 c3 -5 8 -10 11 -10 2 0 4 5 4 10 0 6 -5 10 -11 10 -5 0 -7
-4 -4 -10z"/>
<path d="M1857 653 c-10 -10 -8 -23 4 -23 5 0 7 5 3 11 -4 8 1 9 17 4 19 -5
21 -4 9 4 -18 13 -24 13 -33 4z"/>
<path d="M1690 646 c0 -2 7 -7 16 -10 8 -3 12 -2 9 4 -6 10 -25 14 -25 6z"/>
<path d="M2755 640 c-16 -7 -17 -9 -3 -9 9 -1 18 -7 21 -13 3 -7 4 -3 4 10 -1
12 -1 22 -2 21 0 0 -9 -4 -20 -9z"/>
<path d="M1350 620 c0 -5 9 -8 20 -7 21 1 18 10 -5 13 -8 1 -15 -2 -15 -6z"/>
<path d="M1470 619 c0 -5 5 -7 10 -4 6 3 10 8 10 11 0 2 -4 4 -10 4 -5 0 -10
-5 -10 -11z"/>
<path d="M2715 620 c-3 -5 -1 -10 4 -10 6 0 11 5 11 10 0 6 -2 10 -4 10 -3 0
-8 -4 -11 -10z"/>
<path d="M1526 607 c-16 -12 -16 -14 -3 -14 9 0 18 6 21 14 3 7 4 13 3 13 -2
0 -11 -6 -21 -13z"/>
<path d="M3166 604 c-15 -14 -14 -34 1 -34 4 0 3 3 0 7 -4 3 0 15 10 25 20 22
11 24 -11 2z"/>
<path d="M1635 602 c8 -9 55 -11 55 -3 0 4 -13 7 -30 7 -16 0 -28 -2 -25 -4z"/>
<path d="M1750 600 c0 -5 5 -10 11 -10 5 0 7 5 4 10 -3 6 -8 10 -11 10 -2 0
-4 -4 -4 -10z"/>
<path d="M1845 600 c-3 -6 1 -7 9 -4 18 7 21 14 7 14 -6 0 -13 -4 -16 -10z"/>
<path d="M2830 606 c0 -2 7 -7 16 -10 8 -3 12 -2 9 4 -6 10 -25 14 -25 6z"/>
<path d="M2935 581 c-3 -5 -2 -12 3 -15 5 -3 9 1 9 9 0 17 -3 19 -12 6z"/>
</g>
</svg>
